<svg width="198" height="169" viewBox="0 0 198 169" fill="none" xmlns="http://www.w3.org/2000/svg">
<path d="M37.2313 51.26C36.158 51.3067 35.1313 51.3067 34.1513 51.26C33.1713 51.2133 32.2146 51.1433 31.2813 51.05C29.9746 50.8633 29.1113 50.6067 28.6913 50.28C28.2713 49.9533 27.9213 49.2067 27.6413 48.04C27.128 45.8467 26.638 43.6533 26.1713 41.46C25.7046 39.2667 25.2846 37.0733 24.9113 34.88C24.7246 33.62 24.3746 32.43 23.8613 31.31C23.3946 30.1433 22.7646 29.0467 21.9713 28.02C21.2246 26.9467 20.7113 25.8733 20.4313 24.8C20.198 23.68 20.408 22.49 21.0613 21.23C22.1346 19.0833 23.1146 16.9133 24.0013 14.72C24.9346 12.5267 25.938 10.3567 27.0113 8.21C27.5246 7.23 28.108 6.27333 28.7613 5.34C29.4146 4.40667 30.0913 3.49667 30.7913 2.61C31.1646 2.14333 31.6313 1.86333 32.1913 1.77C32.7513 1.63 33.3113 1.51333 33.8713 1.42C34.758 1.23333 35.6213 1.09333 36.4613 0.999999C37.348 0.906664 38.2346 0.766663 39.1213 0.579996C39.868 0.439998 40.358 0.509999 40.5913 0.789998C40.8713 1.07 41.0346 1.46666 41.0813 1.98C41.268 3.28667 41.4313 4.61667 41.5713 5.97C41.758 7.27666 41.9446 8.60666 42.1313 9.96C42.5046 12.76 42.7613 15.56 42.9013 18.36C43.0413 21.16 43.158 23.9367 43.2513 26.69C43.298 27.67 43.3913 28.65 43.5313 29.63C43.6713 30.61 43.8813 31.5667 44.1613 32.5C44.2546 32.92 44.3713 33.1767 44.5113 33.27C44.698 33.3167 45.0013 33.2467 45.4213 33.06C46.5413 32.5467 47.778 32.0567 49.1313 31.59C50.1113 31.2633 50.4846 31.5433 50.2513 32.43C50.1113 32.8967 50.1113 33.34 50.2513 33.76C50.3913 34.18 50.4846 34.6 50.5313 35.02C50.6246 36.6067 50.718 38.17 50.8113 39.71C50.9513 41.25 51.068 42.8133 51.1613 44.4C51.1613 45.24 51.6046 45.59 52.4913 45.45C53.518 45.2633 54.2413 45.3567 54.6613 45.73C55.128 46.1033 55.4313 46.7567 55.5713 47.69C55.8046 49.4167 56.108 51.1433 56.4813 52.87C56.9013 54.55 57.3913 56.2067 57.9513 57.84C58.0913 58.2133 58.068 58.5167 57.8813 58.75C57.7413 59.03 57.5546 59.2867 57.3213 59.52C56.6213 60.08 55.8746 60.5933 55.0813 61.06C54.288 61.5267 53.588 62.11 52.9813 62.81C52.7946 62.9967 52.5146 63.1133 52.1413 63.16C51.8146 63.2067 51.4646 63.2533 51.0913 63.3C49.6913 63.44 48.2913 63.44 46.8913 63.3C45.4913 63.2067 44.0913 63.2067 42.6913 63.3C42.3646 63.3467 42.1313 63.2533 41.9913 63.02C41.898 62.8333 41.8513 62.6233 41.8513 62.39C41.898 61.1767 41.8746 59.9633 41.7813 58.75C41.7346 57.5367 41.8513 56.3467 42.1313 55.18C42.2713 54.62 42.2713 54.0833 42.1313 53.57C41.9913 53.01 41.898 52.45 41.8513 51.89C41.8513 51.5167 41.7113 51.33 41.4313 51.33C41.198 51.2833 40.9646 51.26 40.7313 51.26H37.2313ZM42.8313 29.84C42.9246 29.3267 42.9013 28.86 42.7613 28.44C42.6213 28.02 42.5513 27.6 42.5513 27.18C42.5046 24.0533 42.388 20.9267 42.2013 17.8C42.0613 14.6733 41.7113 11.57 41.1513 8.49C40.9646 7.41667 40.8246 6.32 40.7313 5.2C40.6846 4.08 40.498 2.98333 40.1713 1.91C40.1246 1.67666 40.0546 1.49 39.9613 1.35C39.868 1.16333 39.658 1.09333 39.3313 1.14C39.098 1.14 38.818 1.14 38.4913 1.14C38.2113 1.09333 38.0246 1.25667 37.9313 1.63C37.5113 2.65666 37.0913 3.70666 36.6713 4.78C36.2513 5.85333 35.9946 6.97333 35.9013 8.14C35.808 10.7533 35.8546 13.3667 36.0413 15.98C36.2746 18.5933 36.4613 21.2067 36.6013 23.82C36.6946 25.4067 36.7646 26.9933 36.8113 28.58C36.858 30.1667 36.9046 31.7533 36.9513 33.34C36.9513 34.4133 37.418 34.6467 38.3513 34.04C38.9113 33.7133 39.448 33.3867 39.9613 33.06C40.4746 32.6867 41.0113 32.3367 41.5713 32.01C42.038 31.73 42.4113 31.4267 42.6913 31.1C43.018 30.7733 43.0646 30.3533 42.8313 29.84ZM36.9513 1.98C37.0446 1.7 36.9746 1.53666 36.7413 1.49C36.5546 1.44333 36.3446 1.44333 36.1113 1.49C35.6446 1.53666 35.178 1.63 34.7113 1.77C34.2446 1.86333 33.7546 1.95666 33.2413 2.05C32.5413 2.14333 32.0046 2.4 31.6313 2.82C31.258 3.24 30.908 3.70666 30.5813 4.22C30.3946 4.40666 30.3246 4.59333 30.3713 4.78C30.418 4.96666 30.5813 5.08333 30.8613 5.13C32.3546 5.27 33.7546 5.50333 35.0613 5.83C35.2946 5.87667 35.5046 5.73666 35.6913 5.41C35.9246 4.85 36.1346 4.29 36.3213 3.73C36.5546 3.17 36.7646 2.58666 36.9513 1.98ZM36.9513 50.77C37.698 50.77 38.398 50.77 39.0513 50.77C39.7046 50.77 40.3346 50.7467 40.9413 50.7C41.688 50.6533 42.178 50.77 42.4113 51.05C42.6913 51.2833 42.8313 51.7267 42.8313 52.38C42.878 53.8267 42.808 55.2733 42.6213 56.72C42.4346 58.12 42.3646 59.5433 42.4113 60.99C42.458 61.5033 42.5513 61.8767 42.6913 62.11C42.878 62.39 43.3213 62.5533 44.0213 62.6C44.908 62.6467 45.7946 62.6933 46.6813 62.74C47.568 62.8333 48.4546 62.8567 49.3413 62.81C50.4613 62.81 51.138 62.6933 51.3713 62.46C51.6513 62.2733 51.8146 61.6667 51.8613 60.64C51.9546 59.2867 52.0246 57.9567 52.0713 56.65C52.118 55.2967 52.1646 53.9667 52.2113 52.66C52.258 51.4933 52.2113 50.6533 52.0713 50.14C51.978 49.6267 51.6746 49.23 51.1613 48.95C50.6946 48.67 49.8546 48.2967 48.6413 47.83C48.2213 47.6433 47.778 47.4567 47.3113 47.27C46.8446 47.0833 46.5413 46.7567 46.4013 46.29C46.0746 45.2167 45.7713 44.12 45.4913 43C45.258 41.88 45.048 40.7833 44.8613 39.71C44.6746 38.59 44.4413 37.4933 44.1613 36.42C43.8813 35.3 43.6013 34.18 43.3213 33.06C43.1813 32.5467 42.9946 32.29 42.7613 32.29C42.5746 32.29 42.2713 32.4067 41.8513 32.64C41.2446 33.0133 40.6613 33.41 40.1013 33.83C39.588 34.25 39.0046 34.5767 38.3513 34.81C37.6046 35.09 37.068 35.16 36.7413 35.02C36.4613 34.88 36.3213 34.46 36.3213 33.76C36.4146 31.0067 36.368 28.2533 36.1813 25.5C35.9946 22.7 35.7846 19.9233 35.5513 17.17C35.4113 15.5367 35.318 13.9033 35.2713 12.27C35.2713 10.6367 35.2713 9.02667 35.2713 7.44C35.2713 7.25333 35.2713 7.06667 35.2713 6.88C35.2713 6.69333 35.1546 6.55333 34.9213 6.46C34.1746 6.08666 33.358 5.87667 32.4713 5.83C31.6313 5.73666 30.8146 5.69 30.0213 5.69C29.5546 5.69 29.2046 5.94666 28.9713 6.46C28.738 6.92666 28.5046 7.37 28.2713 7.79C27.1046 9.79667 26.078 11.8967 25.1913 14.09C24.3513 16.2367 23.348 18.3367 22.1813 20.39C20.548 23.1433 20.7813 25.7567 22.8813 28.23C23.8146 29.3967 24.4913 30.6333 24.9113 31.94C25.3313 33.2 25.6346 34.5067 25.8213 35.86C26.1946 38.0533 26.6146 40.2467 27.0813 42.44C27.548 44.5867 28.0613 46.7333 28.6213 48.88C28.7146 49.3933 28.9246 49.7667 29.2513 50C29.6246 50.2333 30.0913 50.3967 30.6513 50.49C31.7246 50.63 32.798 50.7467 33.8713 50.84C34.9446 50.8867 35.9713 50.8633 36.9513 50.77ZM27.1513 29.21C26.1246 29.2567 25.5413 29.21 25.4013 29.07C25.308 28.93 25.4713 28.44 25.8913 27.6C27.1046 25.22 28.038 22.7933 28.6913 20.32C29.3913 17.8 29.9746 15.28 30.4413 12.76C30.5346 12.4333 30.558 12.06 30.5113 11.64C30.5113 11.1733 30.7913 10.9167 31.3513 10.87C31.9113 10.87 32.1913 11.1033 32.1913 11.57C32.1913 11.99 32.2146 12.34 32.2613 12.62C32.5413 15 32.938 17.3567 33.4513 19.69C33.9646 21.9767 34.3146 24.31 34.5013 26.69C34.6413 27.9967 33.988 28.6267 32.5413 28.58C31.6546 28.5333 30.768 28.65 29.8813 28.93C28.9946 29.1633 28.0846 29.2567 27.1513 29.21ZM31.6313 13.53C31.3046 13.95 31.118 14.37 31.0713 14.79C31.0713 15.21 31.0713 15.63 31.0713 16.05C31.0713 16.2367 31.0713 16.4233 31.0713 16.61C31.118 16.75 31.3046 16.7967 31.6313 16.75C31.9113 16.7033 32.0746 16.61 32.1213 16.47C32.168 16.2833 32.168 16.0967 32.1213 15.91C32.0746 15.5367 32.0046 15.1633 31.9113 14.79C31.818 14.37 31.7246 13.95 31.6313 13.53ZM31.0713 20.95C31.1646 21.0433 31.1413 21.23 31.0013 21.51C30.908 21.7433 31.0946 21.8367 31.5613 21.79C31.9346 21.7433 32.238 21.65 32.4713 21.51C32.7513 21.37 32.8913 21.09 32.8913 20.67C32.8913 20.4833 32.8446 20.11 32.7513 19.55C32.658 18.99 32.518 18.4767 32.3313 18.01C32.1446 17.4967 31.9113 17.2633 31.6313 17.31C31.3513 17.31 31.1646 17.5667 31.0713 18.08C30.978 18.5933 30.9313 19.1533 30.9313 19.76C30.978 20.32 31.0246 20.7167 31.0713 20.95ZM29.9513 18.64C29.5313 20.04 29.0413 21.44 28.4813 22.84C27.968 24.24 27.3846 25.6867 26.7313 27.18C28.0846 26.5267 28.9946 25.85 29.4613 25.15C29.9746 24.45 30.2313 23.5867 30.2313 22.56C30.278 21.5333 30.1846 20.2267 29.9513 18.64ZM33.1713 22.84C33.1713 22.42 32.8913 22.2567 32.3313 22.35C32.0513 22.3967 31.748 22.4667 31.4213 22.56C31.1413 22.6067 31.0013 22.84 31.0013 23.26C31.0013 23.4467 31.0713 23.75 31.2113 24.17C31.3513 24.59 31.5846 24.8233 31.9113 24.87C32.4246 24.9167 32.7513 24.7067 32.8913 24.24C33.0313 23.7733 33.1246 23.3067 33.1713 22.84ZM27.1513 28.44C28.0846 28.6267 28.9713 28.65 29.8113 28.51C30.6513 28.3233 31.4913 28.1833 32.3313 28.09C32.938 27.9967 33.288 27.8567 33.3813 27.67C33.4746 27.4367 33.5446 27.11 33.5913 26.69C33.5913 26.1767 33.4513 25.85 33.1713 25.71C32.938 25.57 32.5646 25.4767 32.0513 25.43C31.2113 25.3833 30.5346 25.5467 30.0213 25.92C29.508 26.2933 29.0413 26.7367 28.6213 27.25C28.2013 27.7167 27.7113 28.1133 27.1513 28.44ZM49.9013 36.63C49.8546 36.3033 49.808 36 49.7613 35.72C49.7613 35.44 49.7146 35.2067 49.6213 35.02C49.4346 34.6 49.4113 34.11 49.5513 33.55C49.6913 32.99 49.528 32.64 49.0613 32.5C48.688 32.4067 48.2213 32.5233 47.6613 32.85C47.148 33.13 46.6346 33.3633 46.1213 33.55C45.0013 33.9233 44.628 34.6467 45.0013 35.72C45.0946 35.9067 45.1413 36.14 45.1413 36.42C45.188 36.6533 45.2346 36.8867 45.2813 37.12C45.468 37.96 45.678 38.45 45.9113 38.59C46.1913 38.6833 46.7513 38.5667 47.5913 38.24C48.058 38.0067 48.548 37.8433 49.0613 37.75C49.5746 37.61 49.8546 37.2367 49.9013 36.63ZM50.9513 47.83C50.6713 47.3167 50.5313 46.8267 50.5313 46.36C50.578 45.8467 50.578 45.3567 50.5313 44.89C50.4846 44.0033 50.4146 43.14 50.3213 42.3C50.2746 41.4133 50.2046 40.5267 50.1113 39.64C50.0646 39.1267 49.948 38.7533 49.7613 38.52C49.5746 38.2867 49.108 38.3333 48.3613 38.66C47.4746 38.9867 46.8446 39.2667 46.4713 39.5C46.1446 39.6867 45.9813 39.99 45.9813 40.41C45.9813 40.7833 46.098 41.4367 46.3313 42.37C46.4246 42.6967 46.5413 43.0467 46.6813 43.42C46.8213 43.7467 46.8913 44.0967 46.8913 44.47C46.938 45.59 47.3346 46.3833 48.0813 46.85C48.828 47.27 49.7846 47.5967 50.9513 47.83ZM53.1913 50C53.4246 49.72 53.658 49.4633 53.8913 49.23C54.1246 48.9967 54.3113 48.7633 54.4513 48.53C54.6846 48.1567 54.8013 47.76 54.8013 47.34C54.848 46.8733 54.6846 46.5233 54.3113 46.29C53.938 46.01 53.4713 45.87 52.9113 45.87C52.3513 45.87 51.908 46.01 51.5813 46.29C51.3946 46.4767 51.3246 46.8033 51.3713 47.27C51.4646 47.69 51.7213 48.04 52.1413 48.32C52.3746 48.5067 52.5613 48.74 52.7013 49.02C52.8413 49.2533 53.0046 49.58 53.1913 50ZM53.0513 52.38C53.4246 52.1 53.7746 51.8667 54.1013 51.68C54.4746 51.4467 54.8246 51.2367 55.1513 51.05C55.5246 50.77 55.5246 50.35 55.1513 49.79C55.1046 49.6967 55.0346 49.6267 54.9413 49.58C54.848 49.4867 54.7546 49.4867 54.6613 49.58C54.288 49.9533 53.8446 50.3267 53.3313 50.7C52.8646 51.0267 52.7713 51.5867 53.0513 52.38ZM55.5713 51.54C55.1513 51.8667 54.6846 52.17 54.1713 52.45C53.7046 52.6833 53.3313 53.01 53.0513 53.43C52.818 53.8033 52.818 54.41 53.0513 55.25C53.3313 54.7833 53.7046 54.4333 54.1713 54.2C54.638 53.92 55.0346 53.5933 55.3613 53.22C55.688 52.8467 55.758 52.2867 55.5713 51.54ZM52.5613 57.21C52.5613 57.2567 52.5613 57.3733 52.5613 57.56C52.5613 57.7467 52.6313 57.8867 52.7713 57.98C53.0046 58.1667 53.238 58.1667 53.4713 57.98C53.7046 57.84 53.9146 57.7 54.1013 57.56C54.4746 57.3267 54.8246 57.0933 55.1513 56.86C55.5246 56.58 55.898 56.3233 56.2713 56.09C56.6446 55.8567 56.738 55.6 56.5513 55.32C56.3646 54.9933 56.2946 54.69 56.3413 54.41C56.3413 54.13 56.1546 53.99 55.7813 53.99C55.5013 53.99 55.1046 54.2 54.5913 54.62C54.078 54.9933 53.6113 55.4367 53.1913 55.95C52.818 56.4167 52.608 56.8367 52.5613 57.21ZM52.6313 61.69C53.2846 61.3167 53.8446 60.9667 54.3113 60.64C54.8246 60.36 55.3146 60.0567 55.7813 59.73C56.0146 59.59 56.2246 59.4267 56.4113 59.24C56.6446 59.0533 56.8546 58.8667 57.0413 58.68C57.3213 58.4467 57.4146 58.2133 57.3213 57.98C57.2746 57.7467 57.2046 57.5133 57.1113 57.28C57.0646 57.14 56.9713 57.0233 56.8313 56.93C56.738 56.8367 56.598 56.8367 56.4113 56.93C55.8046 57.21 55.198 57.5133 54.5913 57.84C53.9846 58.1667 53.4246 58.54 52.9113 58.96C52.538 59.2867 52.3746 59.6833 52.4213 60.15C52.5146 60.6167 52.5846 61.13 52.6313 61.69ZM117.68 46.57C117.587 48.4367 116.794 50.3967 115.3 52.45C113.854 54.5033 112.104 56.51 110.05 58.47C108.277 60.2433 106.154 61.3633 103.68 61.83C101.254 62.3433 98.6171 62.2967 95.7704 61.69C95.3038 61.5967 94.8604 61.5733 94.4404 61.62C94.0671 61.7133 93.6938 61.83 93.3204 61.97C87.7204 64.21 83.7071 62.9033 81.2804 58.05C80.3938 56.1833 79.8104 54.27 79.5304 52.31C79.2504 50.35 78.9938 48.3667 78.7604 46.36C78.3871 42.9067 78.1538 39.4533 78.0604 36C78.0138 32.5 77.8971 29 77.7104 25.5C77.5704 22.8867 77.3838 20.2967 77.1504 17.73C76.9638 15.1167 76.8938 12.5267 76.9404 9.96V9.61C76.8938 7.13666 77.3604 5.27 78.3404 4.01C79.3671 2.75 81.1404 1.81666 83.6604 1.21C86.5538 0.556663 89.2371 0.53333 91.7104 1.14C94.2304 1.74666 96.3304 2.98333 98.0104 4.85C98.5704 5.50333 99.1538 5.97 99.7604 6.25C100.367 6.48333 101.16 6.55333 102.14 6.46C104.287 6.22666 106.294 6.62333 108.16 7.65C110.074 8.63 111.427 9.96 112.22 11.64C113.667 14.58 114.694 17.59 115.3 20.67C115.954 23.7033 116.654 26.7367 117.4 29.77C118.007 32.29 118.287 34.88 118.24 37.54C118.24 40.1533 118.054 43.1633 117.68 46.57ZM101.37 40.27C101.557 39.3367 101.697 38.52 101.79 37.82C101.93 37.12 102.047 36.4667 102.14 35.86C102.374 33.9467 102.257 32.0567 101.79 30.19C101.37 28.2767 101.137 26.3867 101.09 24.52C101.044 22.7467 100.997 20.9733 100.95 19.2C100.95 17.4267 100.834 15.6767 100.6 13.95C100.32 11.6167 99.6204 9.42333 98.5004 7.37C97.4271 5.31666 95.4438 3.63667 92.5504 2.33C91.0571 1.63 89.4938 1.30333 87.8604 1.35C86.2271 1.39666 84.6871 1.72333 83.2404 2.33C81.8404 2.89 80.6738 3.68333 79.7404 4.71C78.8538 5.73666 78.3871 6.92666 78.3404 8.28C78.2938 10.1467 78.2471 11.99 78.2004 13.81C78.2004 15.63 78.2938 17.45 78.4804 19.27C78.8071 22.6767 78.9938 26.0833 79.0404 29.49C79.0871 32.8967 79.1804 36.3033 79.3204 39.71C79.5071 43.07 79.8804 46.4533 80.4404 49.86C80.7204 51.5867 81.0004 53.29 81.2804 54.97C81.5604 56.65 82.3071 58.26 83.5204 59.8C85.3404 62.1333 87.8371 62.8567 91.0104 61.97C92.6904 61.5033 93.9504 60.7567 94.7904 59.73C95.6771 58.75 96.3538 57.6767 96.8204 56.51C97.8471 53.7567 98.8271 51.0267 99.7604 48.32C100.74 45.6133 101.277 42.93 101.37 40.27ZM116.35 44.68C116.77 43.14 117.004 41.53 117.05 39.85C117.097 38.17 117.027 36.49 116.84 34.81C116.56 31.9633 116.047 29.14 115.3 26.34C114.6 23.4933 113.854 20.6467 113.06 17.8C112.5 15.6533 111.59 13.5067 110.33 11.36C109.63 10.1467 108.464 9.12 106.83 8.28C105.244 7.44 103.68 7.04333 102.14 7.09C101.487 7.13666 100.997 7.27667 100.67 7.51C100.39 7.69667 100.344 8.11667 100.53 8.77C101.09 10.4967 101.51 12.2467 101.79 14.02C102.164 16.5867 102.28 19.13 102.14 21.65C102.047 24.17 102.257 26.69 102.77 29.21C103.33 32.3367 103.377 35.3467 102.91 38.24C102.35 41.9733 101.604 45.6833 100.67 49.37C99.7371 53.01 98.2438 56.51 96.1904 59.87C95.9104 60.3367 95.8638 60.6167 96.0504 60.71C96.2838 60.85 96.6338 60.9667 97.1004 61.06C99.1538 61.3867 101.09 61.41 102.91 61.13C104.73 60.85 106.34 60.1033 107.74 58.89C109.98 56.9767 111.917 54.8767 113.55 52.59C115.23 50.3033 116.164 47.6667 116.35 44.68ZM95.4204 44.05C95.2804 44.9833 95.1404 45.9167 95.0004 46.85C94.8604 47.7833 94.7438 48.7167 94.6504 49.65C94.6038 50.3033 94.3704 50.8867 93.9504 51.4C93.5771 51.8667 93.0638 52.2867 92.4104 52.66C90.7304 53.5933 89.1204 53.3833 87.5804 52.03C85.9938 50.63 84.9671 49.1133 84.5004 47.48C84.0338 45.8 83.8004 44.0967 83.8004 42.37C83.7538 39.0567 83.7304 35.7433 83.7304 32.43C83.7304 29.07 83.7538 25.7333 83.8004 22.42C83.8004 21.72 83.8471 20.9967 83.9404 20.25C84.0338 19.4567 84.4538 18.8967 85.2004 18.57C86.4138 17.9633 87.7438 17.6367 89.1904 17.59C90.6838 17.4967 92.0838 17.7767 93.3904 18.43C94.3704 18.85 94.9771 19.5033 95.2104 20.39C95.4904 21.23 95.6304 22.0467 95.6304 22.84C95.6304 26.3867 95.7004 29.9333 95.8404 33.48C95.9804 37.0267 95.8404 40.55 95.4204 44.05ZM94.1604 43.07C94.6738 40.13 94.7904 37.1667 94.5104 34.18C94.2771 31.1933 94.1838 28.2067 94.2304 25.22C94.2771 24.2867 94.1838 23.3533 93.9504 22.42C93.7171 21.4867 93.4138 20.5767 93.0404 19.69C92.8071 19.13 92.3404 18.78 91.6404 18.64C91.1738 18.5467 90.8704 18.6167 90.7304 18.85C90.5904 19.0367 90.4738 19.27 90.3804 19.55C90.2404 20.0167 90.1004 20.46 89.9604 20.88C89.8204 21.3 89.7038 21.7667 89.6104 22.28C88.8638 26.8067 88.7471 31.38 89.2604 36C89.7738 40.62 90.5204 45.2167 91.5004 49.79C91.5471 49.9767 91.6171 50.21 91.7104 50.49C91.8038 50.77 92.0138 50.91 92.3404 50.91C92.7138 50.91 92.9471 50.77 93.0404 50.49C93.1338 50.21 93.2038 49.9533 93.2504 49.72C93.4371 48.6467 93.6004 47.55 93.7404 46.43C93.8804 45.31 94.0204 44.19 94.1604 43.07ZM85.0604 23.33C85.1538 26.7367 85.1304 30.1433 84.9904 33.55C84.8971 36.91 85.0138 40.2933 85.3404 43.7C85.4804 45.1467 85.7604 46.5467 86.1804 47.9C86.6004 49.2533 87.4638 50.5133 88.7704 51.68C89.0504 51.9133 89.3304 52.1233 89.6104 52.31C89.9371 52.4967 90.2871 52.4967 90.6604 52.31C90.9871 52.1233 91.0571 51.9133 90.8704 51.68C90.6838 51.4467 90.5438 51.2367 90.4504 51.05C90.4038 50.77 90.3104 50.5133 90.1704 50.28C90.0771 50 90.0071 49.7433 89.9604 49.51C89.4938 47.55 89.0971 45.6133 88.7704 43.7C88.4438 41.74 88.1871 39.78 88.0004 37.82C87.8138 34.88 87.6504 31.94 87.5104 29C87.4171 26.0133 87.7438 23.0967 88.4904 20.25C88.5838 20.0167 88.6771 19.7367 88.7704 19.41C88.9104 19.0833 88.7238 18.85 88.2104 18.71C87.8371 18.6167 87.4404 18.64 87.0204 18.78C86.6471 18.92 86.3671 19.1533 86.1804 19.48C85.8538 20.0867 85.5504 20.7167 85.2704 21.37C85.0371 21.9767 84.9671 22.63 85.0604 23.33ZM146.47 51.26C145.396 51.3067 144.37 51.3067 143.39 51.26C142.41 51.2133 141.453 51.1433 140.52 51.05C139.213 50.8633 138.35 50.6067 137.93 50.28C137.51 49.9533 137.16 49.2067 136.88 48.04C136.366 45.8467 135.876 43.6533 135.41 41.46C134.943 39.2667 134.523 37.0733 134.15 34.88C133.963 33.62 133.613 32.43 133.1 31.31C132.633 30.1433 132.003 29.0467 131.21 28.02C130.463 26.9467 129.95 25.8733 129.67 24.8C129.436 23.68 129.646 22.49 130.3 21.23C131.373 19.0833 132.353 16.9133 133.24 14.72C134.173 12.5267 135.176 10.3567 136.25 8.21C136.763 7.23 137.346 6.27333 138 5.34C138.653 4.40667 139.33 3.49667 140.03 2.61C140.403 2.14333 140.87 1.86333 141.43 1.77C141.99 1.63 142.55 1.51333 143.11 1.42C143.996 1.23333 144.86 1.09333 145.7 0.999999C146.586 0.906664 147.473 0.766663 148.36 0.579996C149.106 0.439998 149.596 0.509999 149.83 0.789998C150.11 1.07 150.273 1.46666 150.32 1.98C150.506 3.28667 150.67 4.61667 150.81 5.97C150.996 7.27666 151.183 8.60666 151.37 9.96C151.743 12.76 152 15.56 152.14 18.36C152.28 21.16 152.396 23.9367 152.49 26.69C152.536 27.67 152.63 28.65 152.77 29.63C152.91 30.61 153.12 31.5667 153.4 32.5C153.493 32.92 153.61 33.1767 153.75 33.27C153.936 33.3167 154.24 33.2467 154.66 33.06C155.78 32.5467 157.016 32.0567 158.37 31.59C159.35 31.2633 159.723 31.5433 159.49 32.43C159.35 32.8967 159.35 33.34 159.49 33.76C159.63 34.18 159.723 34.6 159.77 35.02C159.863 36.6067 159.956 38.17 160.05 39.71C160.19 41.25 160.306 42.8133 160.4 44.4C160.4 45.24 160.843 45.59 161.73 45.45C162.756 45.2633 163.48 45.3567 163.9 45.73C164.366 46.1033 164.67 46.7567 164.81 47.69C165.043 49.4167 165.346 51.1433 165.72 52.87C166.14 54.55 166.63 56.2067 167.19 57.84C167.33 58.2133 167.306 58.5167 167.12 58.75C166.98 59.03 166.793 59.2867 166.56 59.52C165.86 60.08 165.113 60.5933 164.32 61.06C163.526 61.5267 162.826 62.11 162.22 62.81C162.033 62.9967 161.753 63.1133 161.38 63.16C161.053 63.2067 160.703 63.2533 160.33 63.3C158.93 63.44 157.53 63.44 156.13 63.3C154.73 63.2067 153.33 63.2067 151.93 63.3C151.603 63.3467 151.37 63.2533 151.23 63.02C151.136 62.8333 151.09 62.6233 151.09 62.39C151.136 61.1767 151.113 59.9633 151.02 58.75C150.973 57.5367 151.09 56.3467 151.37 55.18C151.51 54.62 151.51 54.0833 151.37 53.57C151.23 53.01 151.136 52.45 151.09 51.89C151.09 51.5167 150.95 51.33 150.67 51.33C150.436 51.2833 150.203 51.26 149.97 51.26H146.47ZM152.07 29.84C152.163 29.3267 152.14 28.86 152 28.44C151.86 28.02 151.79 27.6 151.79 27.18C151.743 24.0533 151.626 20.9267 151.44 17.8C151.3 14.6733 150.95 11.57 150.39 8.49C150.203 7.41667 150.063 6.32 149.97 5.2C149.923 4.08 149.736 2.98333 149.41 1.91C149.363 1.67666 149.293 1.49 149.2 1.35C149.106 1.16333 148.896 1.09333 148.57 1.14C148.336 1.14 148.056 1.14 147.73 1.14C147.45 1.09333 147.263 1.25667 147.17 1.63C146.75 2.65666 146.33 3.70666 145.91 4.78C145.49 5.85333 145.233 6.97333 145.14 8.14C145.046 10.7533 145.093 13.3667 145.28 15.98C145.513 18.5933 145.7 21.2067 145.84 23.82C145.933 25.4067 146.003 26.9933 146.05 28.58C146.096 30.1667 146.143 31.7533 146.19 33.34C146.19 34.4133 146.656 34.6467 147.59 34.04C148.15 33.7133 148.686 33.3867 149.2 33.06C149.713 32.6867 150.25 32.3367 150.81 32.01C151.276 31.73 151.65 31.4267 151.93 31.1C152.256 30.7733 152.303 30.3533 152.07 29.84ZM146.19 1.98C146.283 1.7 146.213 1.53666 145.98 1.49C145.793 1.44333 145.583 1.44333 145.35 1.49C144.883 1.53666 144.416 1.63 143.95 1.77C143.483 1.86333 142.993 1.95666 142.48 2.05C141.78 2.14333 141.243 2.4 140.87 2.82C140.496 3.24 140.146 3.70666 139.82 4.22C139.633 4.40666 139.563 4.59333 139.61 4.78C139.656 4.96666 139.82 5.08333 140.1 5.13C141.593 5.27 142.993 5.50333 144.3 5.83C144.533 5.87667 144.743 5.73666 144.93 5.41C145.163 4.85 145.373 4.29 145.56 3.73C145.793 3.17 146.003 2.58666 146.19 1.98ZM146.19 50.77C146.936 50.77 147.636 50.77 148.29 50.77C148.943 50.77 149.573 50.7467 150.18 50.7C150.926 50.6533 151.416 50.77 151.65 51.05C151.93 51.2833 152.07 51.7267 152.07 52.38C152.116 53.8267 152.046 55.2733 151.86 56.72C151.673 58.12 151.603 59.5433 151.65 60.99C151.696 61.5033 151.79 61.8767 151.93 62.11C152.116 62.39 152.56 62.5533 153.26 62.6C154.146 62.6467 155.033 62.6933 155.92 62.74C156.806 62.8333 157.693 62.8567 158.58 62.81C159.7 62.81 160.376 62.6933 160.61 62.46C160.89 62.2733 161.053 61.6667 161.1 60.64C161.193 59.2867 161.263 57.9567 161.31 56.65C161.356 55.2967 161.403 53.9667 161.45 52.66C161.496 51.4933 161.45 50.6533 161.31 50.14C161.216 49.6267 160.913 49.23 160.4 48.95C159.933 48.67 159.093 48.2967 157.88 47.83C157.46 47.6433 157.016 47.4567 156.55 47.27C156.083 47.0833 155.78 46.7567 155.64 46.29C155.313 45.2167 155.01 44.12 154.73 43C154.496 41.88 154.286 40.7833 154.1 39.71C153.913 38.59 153.68 37.4933 153.4 36.42C153.12 35.3 152.84 34.18 152.56 33.06C152.42 32.5467 152.233 32.29 152 32.29C151.813 32.29 151.51 32.4067 151.09 32.64C150.483 33.0133 149.9 33.41 149.34 33.83C148.826 34.25 148.243 34.5767 147.59 34.81C146.843 35.09 146.306 35.16 145.98 35.02C145.7 34.88 145.56 34.46 145.56 33.76C145.653 31.0067 145.606 28.2533 145.42 25.5C145.233 22.7 145.023 19.9233 144.79 17.17C144.65 15.5367 144.556 13.9033 144.51 12.27C144.51 10.6367 144.51 9.02667 144.51 7.44C144.51 7.25333 144.51 7.06667 144.51 6.88C144.51 6.69333 144.393 6.55333 144.16 6.46C143.413 6.08666 142.596 5.87667 141.71 5.83C140.87 5.73666 140.053 5.69 139.26 5.69C138.793 5.69 138.443 5.94666 138.21 6.46C137.976 6.92666 137.743 7.37 137.51 7.79C136.343 9.79667 135.316 11.8967 134.43 14.09C133.59 16.2367 132.586 18.3367 131.42 20.39C129.786 23.1433 130.02 25.7567 132.12 28.23C133.053 29.3967 133.73 30.6333 134.15 31.94C134.57 33.2 134.873 34.5067 135.06 35.86C135.433 38.0533 135.853 40.2467 136.32 42.44C136.786 44.5867 137.3 46.7333 137.86 48.88C137.953 49.3933 138.163 49.7667 138.49 50C138.863 50.2333 139.33 50.3967 139.89 50.49C140.963 50.63 142.036 50.7467 143.11 50.84C144.183 50.8867 145.21 50.8633 146.19 50.77ZM136.39 29.21C135.363 29.2567 134.78 29.21 134.64 29.07C134.546 28.93 134.71 28.44 135.13 27.6C136.343 25.22 137.276 22.7933 137.93 20.32C138.63 17.8 139.213 15.28 139.68 12.76C139.773 12.4333 139.796 12.06 139.75 11.64C139.75 11.1733 140.03 10.9167 140.59 10.87C141.15 10.87 141.43 11.1033 141.43 11.57C141.43 11.99 141.453 12.34 141.5 12.62C141.78 15 142.176 17.3567 142.69 19.69C143.203 21.9767 143.553 24.31 143.74 26.69C143.88 27.9967 143.226 28.6267 141.78 28.58C140.893 28.5333 140.006 28.65 139.12 28.93C138.233 29.1633 137.323 29.2567 136.39 29.21ZM140.87 13.53C140.543 13.95 140.356 14.37 140.31 14.79C140.31 15.21 140.31 15.63 140.31 16.05C140.31 16.2367 140.31 16.4233 140.31 16.61C140.356 16.75 140.543 16.7967 140.87 16.75C141.15 16.7033 141.313 16.61 141.36 16.47C141.406 16.2833 141.406 16.0967 141.36 15.91C141.313 15.5367 141.243 15.1633 141.15 14.79C141.056 14.37 140.963 13.95 140.87 13.53ZM140.31 20.95C140.403 21.0433 140.38 21.23 140.24 21.51C140.146 21.7433 140.333 21.8367 140.8 21.79C141.173 21.7433 141.476 21.65 141.71 21.51C141.99 21.37 142.13 21.09 142.13 20.67C142.13 20.4833 142.083 20.11 141.99 19.55C141.896 18.99 141.756 18.4767 141.57 18.01C141.383 17.4967 141.15 17.2633 140.87 17.31C140.59 17.31 140.403 17.5667 140.31 18.08C140.216 18.5933 140.17 19.1533 140.17 19.76C140.216 20.32 140.263 20.7167 140.31 20.95ZM139.19 18.64C138.77 20.04 138.28 21.44 137.72 22.84C137.206 24.24 136.623 25.6867 135.97 27.18C137.323 26.5267 138.233 25.85 138.7 25.15C139.213 24.45 139.47 23.5867 139.47 22.56C139.516 21.5333 139.423 20.2267 139.19 18.64ZM142.41 22.84C142.41 22.42 142.13 22.2567 141.57 22.35C141.29 22.3967 140.986 22.4667 140.66 22.56C140.38 22.6067 140.24 22.84 140.24 23.26C140.24 23.4467 140.31 23.75 140.45 24.17C140.59 24.59 140.823 24.8233 141.15 24.87C141.663 24.9167 141.99 24.7067 142.13 24.24C142.27 23.7733 142.363 23.3067 142.41 22.84ZM136.39 28.44C137.323 28.6267 138.21 28.65 139.05 28.51C139.89 28.3233 140.73 28.1833 141.57 28.09C142.176 27.9967 142.526 27.8567 142.62 27.67C142.713 27.4367 142.783 27.11 142.83 26.69C142.83 26.1767 142.69 25.85 142.41 25.71C142.176 25.57 141.803 25.4767 141.29 25.43C140.45 25.3833 139.773 25.5467 139.26 25.92C138.746 26.2933 138.28 26.7367 137.86 27.25C137.44 27.7167 136.95 28.1133 136.39 28.44ZM159.14 36.63C159.093 36.3033 159.046 36 159 35.72C159 35.44 158.953 35.2067 158.86 35.02C158.673 34.6 158.65 34.11 158.79 33.55C158.93 32.99 158.766 32.64 158.3 32.5C157.926 32.4067 157.46 32.5233 156.9 32.85C156.386 33.13 155.873 33.3633 155.36 33.55C154.24 33.9233 153.866 34.6467 154.24 35.72C154.333 35.9067 154.38 36.14 154.38 36.42C154.426 36.6533 154.473 36.8867 154.52 37.12C154.706 37.96 154.916 38.45 155.15 38.59C155.43 38.6833 155.99 38.5667 156.83 38.24C157.296 38.0067 157.786 37.8433 158.3 37.75C158.813 37.61 159.093 37.2367 159.14 36.63ZM160.19 47.83C159.91 47.3167 159.77 46.8267 159.77 46.36C159.816 45.8467 159.816 45.3567 159.77 44.89C159.723 44.0033 159.653 43.14 159.56 42.3C159.513 41.4133 159.443 40.5267 159.35 39.64C159.303 39.1267 159.186 38.7533 159 38.52C158.813 38.2867 158.346 38.3333 157.6 38.66C156.713 38.9867 156.083 39.2667 155.71 39.5C155.383 39.6867 155.22 39.99 155.22 40.41C155.22 40.7833 155.336 41.4367 155.57 42.37C155.663 42.6967 155.78 43.0467 155.92 43.42C156.06 43.7467 156.13 44.0967 156.13 44.47C156.176 45.59 156.573 46.3833 157.32 46.85C158.066 47.27 159.023 47.5967 160.19 47.83ZM162.43 50C162.663 49.72 162.896 49.4633 163.13 49.23C163.363 48.9967 163.55 48.7633 163.69 48.53C163.923 48.1567 164.04 47.76 164.04 47.34C164.086 46.8733 163.923 46.5233 163.55 46.29C163.176 46.01 162.71 45.87 162.15 45.87C161.59 45.87 161.146 46.01 160.82 46.29C160.633 46.4767 160.563 46.8033 160.61 47.27C160.703 47.69 160.96 48.04 161.38 48.32C161.613 48.5067 161.8 48.74 161.94 49.02C162.08 49.2533 162.243 49.58 162.43 50ZM162.29 52.38C162.663 52.1 163.013 51.8667 163.34 51.68C163.713 51.4467 164.063 51.2367 164.39 51.05C164.763 50.77 164.763 50.35 164.39 49.79C164.343 49.6967 164.273 49.6267 164.18 49.58C164.086 49.4867 163.993 49.4867 163.9 49.58C163.526 49.9533 163.083 50.3267 162.57 50.7C162.103 51.0267 162.01 51.5867 162.29 52.38ZM164.81 51.54C164.39 51.8667 163.923 52.17 163.41 52.45C162.943 52.6833 162.57 53.01 162.29 53.43C162.056 53.8033 162.056 54.41 162.29 55.25C162.57 54.7833 162.943 54.4333 163.41 54.2C163.876 53.92 164.273 53.5933 164.6 53.22C164.926 52.8467 164.996 52.2867 164.81 51.54ZM161.8 57.21C161.8 57.2567 161.8 57.3733 161.8 57.56C161.8 57.7467 161.87 57.8867 162.01 57.98C162.243 58.1667 162.476 58.1667 162.71 57.98C162.943 57.84 163.153 57.7 163.34 57.56C163.713 57.3267 164.063 57.0933 164.39 56.86C164.763 56.58 165.136 56.3233 165.51 56.09C165.883 55.8567 165.976 55.6 165.79 55.32C165.603 54.9933 165.533 54.69 165.58 54.41C165.58 54.13 165.393 53.99 165.02 53.99C164.74 53.99 164.343 54.2 163.83 54.62C163.316 54.9933 162.85 55.4367 162.43 55.95C162.056 56.4167 161.846 56.8367 161.8 57.21ZM161.87 61.69C162.523 61.3167 163.083 60.9667 163.55 60.64C164.063 60.36 164.553 60.0567 165.02 59.73C165.253 59.59 165.463 59.4267 165.65 59.24C165.883 59.0533 166.093 58.8667 166.28 58.68C166.56 58.4467 166.653 58.2133 166.56 57.98C166.513 57.7467 166.443 57.5133 166.35 57.28C166.303 57.14 166.21 57.0233 166.07 56.93C165.976 56.8367 165.836 56.8367 165.65 56.93C165.043 57.21 164.436 57.5133 163.83 57.84C163.223 58.1667 162.663 58.54 162.15 58.96C161.776 59.2867 161.613 59.6833 161.66 60.15C161.753 60.6167 161.823 61.13 161.87 61.69ZM26.9164 117.83C27.7097 117.317 28.4097 116.873 29.0164 116.5C29.6697 116.08 30.2997 115.707 30.9064 115.38C32.1197 114.68 33.0297 114.96 33.6364 116.22C34.1497 117.2 34.5697 118.18 34.8964 119.16C35.2231 120.14 35.4097 121.19 35.4564 122.31C35.5964 124.13 34.8497 125.367 33.2164 126.02C29.8097 127.373 27.6397 126.183 26.7064 122.45C26.6131 122.077 26.5431 121.703 26.4964 121.33C26.4497 120.91 26.2397 120.49 25.8664 120.07C25.5397 120.583 25.3531 121.097 25.3064 121.61C25.3064 122.077 25.3064 122.567 25.3064 123.08V128.33C25.3997 129.403 24.9097 129.963 23.8364 130.01C22.0631 130.15 20.2897 130.29 18.5164 130.43C16.7431 130.523 14.9697 130.523 13.1964 130.43C12.3097 130.337 11.6564 130.453 11.2364 130.78C10.8631 131.107 10.6531 131.737 10.6064 132.67C10.6064 134.07 10.6531 135.073 10.7464 135.68C10.8397 136.24 11.1664 136.613 11.7264 136.8C12.2864 136.987 13.2664 137.197 14.6664 137.43C16.9997 137.803 19.2864 137.85 21.5264 137.57C23.7664 137.243 25.9831 136.73 28.1764 136.03C29.3897 135.657 30.1364 135.587 30.4164 135.82C30.7431 136.053 30.9764 136.8 31.1164 138.06C31.2097 138.667 31.2564 139.297 31.2564 139.95C31.3031 140.557 31.3497 141.163 31.3964 141.77C31.4897 142.75 31.2797 143.52 30.7664 144.08C30.2531 144.64 29.5064 144.897 28.5264 144.85C27.7331 144.757 26.9164 144.733 26.0764 144.78C25.2831 144.78 24.4897 144.617 23.6964 144.29C22.9497 143.963 22.2497 143.963 21.5964 144.29C20.9431 144.57 20.2664 144.757 19.5664 144.85C18.2597 144.99 16.9531 145.13 15.6464 145.27C14.3397 145.363 13.0097 145.41 11.6564 145.41C10.9564 145.41 10.3964 145.573 9.97641 145.9C9.60307 146.18 9.39307 146.74 9.34641 147.58C9.29974 148.747 9.27641 149.937 9.27641 151.15C9.32307 152.317 9.34641 153.507 9.34641 154.72C9.34641 155.093 9.41641 155.327 9.55641 155.42C9.74307 155.513 9.99974 155.583 10.3264 155.63C11.6797 155.863 13.0331 155.957 14.3864 155.91C15.7397 155.817 17.0931 155.723 18.4464 155.63C19.8931 155.537 21.3164 155.42 22.7164 155.28C24.1631 155.093 25.6097 154.767 27.0564 154.3C27.9897 153.927 28.8997 153.507 29.7864 153.04C30.7197 152.573 31.6764 152.2 32.6564 151.92C33.8697 151.547 34.7331 151.477 35.2464 151.71C35.8064 151.897 36.2731 152.597 36.6464 153.81C36.8797 154.557 37.0664 155.327 37.2064 156.12C37.3464 156.867 37.4631 157.637 37.5564 158.43C37.6497 159.13 37.3697 159.783 36.7164 160.39C36.0631 160.95 35.2697 161.3 34.3364 161.44C33.2164 161.58 32.0964 161.72 30.9764 161.86C29.8564 161.953 28.7364 162.047 27.6164 162.14C26.8697 162.233 26.1697 162.397 25.5164 162.63C24.8631 162.863 24.3964 163.447 24.1164 164.38C23.9297 164.987 23.5331 165.383 22.9264 165.57C22.3664 165.757 21.8064 165.827 21.2464 165.78C18.6797 165.313 16.0664 165.033 13.4064 164.94C10.7464 164.847 8.10974 164.753 5.49641 164.66C4.51641 164.613 3.83974 164.357 3.46641 163.89C3.09307 163.423 2.85974 162.793 2.76641 162C2.48641 159.76 2.22974 157.52 1.99641 155.28C1.76307 153.04 1.50641 150.8 1.22641 148.56C0.526407 142.587 0.433073 136.683 0.946407 130.85C1.45974 124.97 2.04307 119.09 2.69641 113.21C2.83641 111.903 3.11641 110.643 3.53641 109.43C4.00307 108.217 4.30641 106.98 4.44641 105.72C4.58641 105.113 4.98307 104.81 5.63641 104.81C7.64307 104.857 9.62641 104.903 11.5864 104.95C13.5464 104.997 15.4831 105.277 17.3964 105.79C18.2364 105.977 19.0997 106.117 19.9864 106.21C20.8731 106.303 21.7597 106.397 22.6464 106.49C22.7397 106.537 22.8564 106.56 22.9964 106.56C23.1364 106.56 23.2531 106.56 23.3464 106.56C24.9797 106.7 26.1464 106.933 26.8464 107.26C27.5931 107.587 27.9897 108.147 28.0364 108.94C28.1297 109.687 27.9664 110.83 27.5464 112.37C27.3131 113.21 27.1497 114.073 27.0564 114.96C26.9631 115.847 26.9164 116.803 26.9164 117.83ZM5.35641 106.07C6.42974 106.117 7.47974 106.163 8.50641 106.21C9.53307 106.257 10.5597 106.35 11.5864 106.49C13.7797 106.817 15.9731 107.19 18.1664 107.61C20.3597 107.983 22.5531 108.333 24.7464 108.66C25.1197 108.707 25.5631 108.823 26.0764 109.01C26.5897 109.197 26.8931 109.01 26.9864 108.45C27.0797 108.077 26.8464 107.843 26.2864 107.75C25.7264 107.61 25.2364 107.517 24.8164 107.47C21.8297 107.097 18.8664 106.677 15.9264 106.21C13.0331 105.697 10.0697 105.393 7.03641 105.3C6.75641 105.3 6.45307 105.277 6.12641 105.23C5.84641 105.183 5.58974 105.463 5.35641 106.07ZM12.9864 108.03C12.9864 107.937 12.9864 107.843 12.9864 107.75C13.0331 107.61 13.0564 107.517 13.0564 107.47C12.7297 107.423 12.3797 107.377 12.0064 107.33C11.6797 107.283 11.3531 107.237 11.0264 107.19C9.43974 107.003 8.27307 106.957 7.52641 107.05C6.82641 107.097 6.31307 107.447 5.98641 108.1C5.70641 108.707 5.35641 109.803 4.93641 111.39C4.46974 113.117 4.21307 114.353 4.16641 115.1C4.16641 115.847 4.51641 116.29 5.21641 116.43C5.96307 116.523 7.24641 116.5 9.06641 116.36C10.6997 116.22 12.3097 116.08 13.8964 115.94C15.5297 115.753 17.1397 115.893 18.7264 116.36C19.6597 116.687 20.6164 116.967 21.5964 117.2C22.5764 117.433 23.5564 117.667 24.5364 117.9C25.0497 117.993 25.4231 117.97 25.6564 117.83C25.9364 117.69 26.0997 117.34 26.1464 116.78C26.2397 115.847 26.3564 114.913 26.4964 113.98C26.6364 113 26.8231 112.067 27.0564 111.18C27.1964 110.527 27.1731 110.107 26.9864 109.92C26.7997 109.733 26.4264 109.617 25.8664 109.57C23.7197 109.337 21.5731 109.08 19.4264 108.8C17.2797 108.52 15.1331 108.263 12.9864 108.03ZM34.3364 120.98C34.2897 119.907 34.0797 118.997 33.7064 118.25C33.3331 117.503 32.9364 116.803 32.5164 116.15C32.3297 115.823 32.0731 115.777 31.7464 116.01C31.6064 116.103 31.5364 116.22 31.5364 116.36C31.5831 116.5 31.6297 116.617 31.6764 116.71C31.9564 117.41 32.3064 118.11 32.7264 118.81C33.1931 119.463 33.7297 120.187 34.3364 120.98ZM19.9864 117.9C18.8664 117.527 17.7464 117.2 16.6264 116.92C15.5531 116.593 14.4097 116.64 13.1964 117.06C14.3164 117.2 15.4364 117.34 16.5564 117.48C17.7231 117.62 18.8664 117.76 19.9864 117.9ZM2.06641 125.88C2.01974 127.327 1.90307 128.773 1.71641 130.22C1.52974 131.62 1.41307 133.043 1.36641 134.49C1.27307 138.877 1.41307 143.24 1.78641 147.58C2.20641 151.873 2.71974 156.167 3.32641 160.46C3.51307 161.58 3.62974 162.35 3.67641 162.77C3.76974 163.237 4.04974 163.493 4.51641 163.54C4.98307 163.587 5.84641 163.587 7.10641 163.54C7.33974 163.493 7.54974 163.47 7.73641 163.47C7.92307 163.517 8.10974 163.563 8.29641 163.61C10.3964 163.843 12.4964 163.983 14.5964 164.03C16.7431 164.123 18.8897 164.357 21.0364 164.73C22.7164 165.01 23.5797 164.31 23.6264 162.63C23.6264 161.977 23.6264 161.347 23.6264 160.74C23.6731 160.087 23.7197 159.433 23.7664 158.78C23.8597 157.66 23.6264 156.983 23.0664 156.75C22.5531 156.47 21.8997 156.377 21.1064 156.47C19.2397 156.657 17.3964 156.75 15.5764 156.75C13.7564 156.703 11.9131 156.633 10.0464 156.54C9.01974 156.447 8.24974 156.213 7.73641 155.84C7.26974 155.42 6.96641 154.697 6.82641 153.67C6.54641 151.757 6.49974 149.89 6.68641 148.07C6.82641 147.137 6.94307 146.483 7.03641 146.11C7.12974 145.737 7.36307 145.48 7.73641 145.34C8.15641 145.153 8.83307 144.99 9.76641 144.85C11.3531 144.57 12.9397 144.43 14.5264 144.43C16.1131 144.383 17.6997 144.173 19.2864 143.8C19.5664 143.707 19.8464 143.66 20.1264 143.66C20.4531 143.613 20.6397 143.427 20.6864 143.1C20.8731 142.447 20.9664 141.793 20.9664 141.14C20.9664 140.487 20.8497 139.857 20.6164 139.25C20.4297 138.783 20.0564 138.597 19.4964 138.69C18.9831 138.737 18.4931 138.76 18.0264 138.76C16.6731 138.807 15.3197 139.017 13.9664 139.39C12.6131 139.763 11.2364 139.927 9.83641 139.88C8.52974 139.88 7.92307 139.227 8.01641 137.92C8.06307 136.893 8.15641 135.89 8.29641 134.91C8.48307 133.93 8.66974 132.95 8.85641 131.97C9.08974 130.85 9.53307 130.173 10.1864 129.94C10.8397 129.66 11.6331 129.543 12.5664 129.59C14.2464 129.637 15.9264 129.613 17.6064 129.52C19.2864 129.427 20.9897 129.333 22.7164 129.24C23.3697 129.147 23.8131 128.937 24.0464 128.61C24.2797 128.283 24.3964 127.84 24.3964 127.28C24.3497 126.253 24.3031 125.25 24.2564 124.27C24.2097 123.29 24.2097 122.287 24.2564 121.26C24.3031 120.607 24.1864 120.163 23.9064 119.93C23.6731 119.65 23.2531 119.463 22.6464 119.37C19.5664 118.763 16.4631 118.297 13.3364 117.97C10.2564 117.597 7.17641 117.247 4.09641 116.92C3.20974 116.78 2.78974 117.083 2.83641 117.83C2.92974 119.183 2.83641 120.537 2.55641 121.89C2.32307 123.197 2.15974 124.527 2.06641 125.88ZM27.1964 119.3C27.1497 120.467 27.3131 121.517 27.6864 122.45C28.1064 123.383 28.5497 124.293 29.0164 125.18C29.1564 125.413 29.2964 125.53 29.4364 125.53C30.2297 125.437 30.9531 125.227 31.6064 124.9C32.2597 124.573 32.8664 124.153 33.4264 123.64C33.8931 123.22 33.9864 122.8 33.7064 122.38C33.4731 121.96 33.2631 121.54 33.0764 121.12C32.8897 120.7 32.6797 120.28 32.4464 119.86C32.2597 119.44 32.0497 119.043 31.8164 118.67C31.5831 118.343 31.3964 117.923 31.2564 117.41C31.1164 116.897 30.7431 116.757 30.1364 116.99C28.8297 117.457 27.8497 118.227 27.1964 119.3ZM26.2164 137.78C26.7764 137.827 27.2664 137.897 27.6864 137.99C28.1531 138.037 28.5964 138.083 29.0164 138.13C29.2497 138.13 29.4831 138.13 29.7164 138.13C29.9964 138.13 30.1364 137.943 30.1364 137.57C30.1364 137.15 30.0197 136.87 29.7864 136.73C29.5531 136.543 29.2497 136.497 28.8764 136.59C28.4564 136.73 28.0131 136.847 27.5464 136.94C27.1264 137.033 26.6831 137.313 26.2164 137.78ZM13.7564 138.06C13.0097 137.967 12.3331 137.897 11.7264 137.85C11.1664 137.757 10.6297 137.687 10.1164 137.64C9.92974 137.593 9.71974 137.477 9.48641 137.29C9.29974 137.103 9.15974 137.29 9.06641 137.85C8.92641 138.457 9.22974 138.807 9.97641 138.9C10.5831 138.947 11.1664 138.9 11.7264 138.76C12.3331 138.62 13.0097 138.387 13.7564 138.06ZM27.3364 138.97C26.7297 138.83 26.1464 138.783 25.5864 138.83C25.0264 138.877 24.4897 138.947 23.9764 139.04C22.7631 139.227 22.0631 139.437 21.8764 139.67C21.6897 139.903 21.6897 140.627 21.8764 141.84C21.9697 142.307 22.1097 142.68 22.2964 142.96C22.5297 143.193 22.8797 143.333 23.3464 143.38C23.9531 143.427 24.5364 143.497 25.0964 143.59C25.7031 143.683 26.3097 143.8 26.9164 143.94C27.9431 144.173 28.5497 144.033 28.7364 143.52C28.9697 143.007 29.0864 142.4 29.0864 141.7C29.1331 141.233 29.1564 140.79 29.1564 140.37C29.2031 139.903 29.1097 139.53 28.8764 139.25C28.6431 138.97 28.1297 138.877 27.3364 138.97ZM8.50641 146.39H7.94641C7.61974 147.837 7.40974 149.283 7.31641 150.73C7.26974 152.13 7.47974 153.53 7.94641 154.93H8.43641C8.43641 153.483 8.43641 152.06 8.43641 150.66C8.48307 149.213 8.50641 147.79 8.50641 146.39ZM24.6064 157.94V159.62C24.5597 161.16 25.3064 161.743 26.8464 161.37C27.4997 161.183 28.1297 161.067 28.7364 161.02C29.3897 160.927 30.0431 160.833 30.6964 160.74C32.1897 160.553 33.2397 160.343 33.8464 160.11C34.4531 159.877 34.7797 159.433 34.8264 158.78C34.9197 158.127 34.8497 157.077 34.6164 155.63V155.42C34.4764 154.44 33.8931 153.95 32.8664 153.95C31.8864 153.95 30.9531 154.09 30.0664 154.37C29.2264 154.65 28.3397 154.907 27.4064 155.14C26.8931 155.233 26.3797 155.35 25.8664 155.49C25.3531 155.63 24.9564 155.863 24.6764 156.19C24.4431 156.517 24.4197 157.1 24.6064 157.94ZM60.9927 131.13C61.5061 130.71 61.9494 130.337 62.3227 130.01C62.7427 129.637 63.1394 129.287 63.5127 128.96C64.8194 127.793 66.1961 127.023 67.6427 126.65C69.0894 126.23 70.6527 126.277 72.3327 126.79C72.6127 126.883 72.8927 126.93 73.1727 126.93C73.4527 126.93 73.7327 126.907 74.0127 126.86C75.3661 126.72 76.6494 126.743 77.8627 126.93C79.1227 127.117 79.6361 127.84 79.4027 129.1C79.2627 129.847 79.1227 130.593 78.9827 131.34C78.8427 132.087 78.6561 132.81 78.4227 133.51C78.1427 134.397 77.7461 135.003 77.2327 135.33C76.7661 135.61 76.0661 135.68 75.1327 135.54C74.7594 135.447 74.5027 135.353 74.3627 135.26C73.3827 134.513 72.4027 134.117 71.4227 134.07C70.4427 134.023 69.4394 134.117 68.4127 134.35C67.4327 134.583 66.4527 134.793 65.4727 134.98C64.4927 135.12 64.0727 135.703 64.2127 136.73C64.4461 137.943 64.6561 139.18 64.8427 140.44C65.0761 141.653 65.2861 142.867 65.4727 144.08C65.9394 146.6 66.2661 149.12 66.4527 151.64C66.6394 154.16 66.8261 156.657 67.0127 159.13C67.1061 160.017 67.1761 160.903 67.2227 161.79C67.3161 162.677 67.4094 163.587 67.5027 164.52C67.6427 165.64 67.1294 166.27 65.9627 166.41C65.4027 166.457 64.8194 166.503 64.2127 166.55C63.6527 166.643 63.2094 167.063 62.8827 167.81C62.8361 167.857 62.6961 167.903 62.4627 167.95C62.2761 167.997 62.0894 168.043 61.9027 168.09C61.5761 168.137 61.2261 168.16 60.8527 168.16C60.5261 168.16 60.1761 168.183 59.8027 168.23C58.7294 168.323 58.0061 168.23 57.6327 167.95C57.2594 167.67 57.0261 166.97 56.9327 165.85C56.8394 164.17 56.7461 162.513 56.6527 160.88C56.6061 159.2 56.5361 157.497 56.4427 155.77C56.3961 153.997 56.2327 152.223 55.9527 150.45C55.7194 148.63 55.3694 146.857 54.9027 145.13C54.5761 143.823 54.4594 142.517 54.5527 141.21C54.6461 139.857 54.7161 138.527 54.7627 137.22C54.8561 135.353 55.0894 133.533 55.4627 131.76C55.8827 129.94 56.2561 128.12 56.5827 126.3C56.6294 126.113 56.6994 125.88 56.7927 125.6C57.3061 123.967 57.8661 122.963 58.4727 122.59C59.0794 122.217 60.2227 122.17 61.9027 122.45C62.5561 122.543 62.9527 122.707 63.0927 122.94C63.2327 123.127 63.1161 123.523 62.7427 124.13C62.1361 125.157 61.6927 126.253 61.4127 127.42C61.1327 128.54 60.9927 129.777 60.9927 131.13ZM57.9127 125.18C57.7727 125.927 57.9827 126.347 58.5427 126.44C60.2227 126.813 61.3194 125.997 61.8327 123.99C61.9727 123.477 61.8094 123.173 61.3427 123.08C59.4761 122.613 58.3327 123.313 57.9127 125.18ZM60.0127 130.15C60.0594 129.917 60.1061 129.73 60.1527 129.59C60.1994 129.45 60.2227 129.31 60.2227 129.17C60.1761 128.843 60.1994 128.493 60.2927 128.12C60.4327 127.747 60.2461 127.467 59.7327 127.28C59.1261 127 58.5661 127 58.0527 127.28C57.5394 127.56 57.2127 128.027 57.0727 128.68C56.9327 129.147 56.7927 129.613 56.6527 130.08C56.5127 130.547 56.4194 131.037 56.3727 131.55C56.0927 134.163 55.8594 136.8 55.6727 139.46C55.5327 142.073 55.7661 144.71 56.3727 147.37C57.0261 150.31 57.3994 153.273 57.4927 156.26C57.5861 159.247 57.6794 162.21 57.7727 165.15C57.8194 166.177 57.9594 166.807 58.1927 167.04C58.4261 167.273 59.0327 167.367 60.0127 167.32C60.1994 167.32 60.3627 167.297 60.5027 167.25C60.6427 167.25 60.8061 167.25 60.9927 167.25C61.9727 167.297 62.4627 166.807 62.4627 165.78C62.4161 164.007 62.3227 162.257 62.1827 160.53C62.0427 158.757 61.8094 156.983 61.4827 155.21C60.5961 149.75 60.0361 144.243 59.8027 138.69C59.7561 137.477 59.9661 136.59 60.4327 136.03C60.8994 135.47 61.7161 135.027 62.8827 134.7C64.0961 134.42 65.2861 134.187 66.4527 134C67.6661 133.813 68.8561 133.627 70.0227 133.44C71.4227 133.207 72.2627 132.927 72.5427 132.6C72.8694 132.227 72.9394 131.317 72.7527 129.87C72.7061 129.637 72.6594 129.427 72.6127 129.24C72.6127 129.007 72.5661 128.797 72.4727 128.61C72.0994 127.583 71.3761 127.07 70.3027 127.07C69.2761 126.977 68.2961 127.07 67.3627 127.35C66.4294 127.63 65.5661 128.143 64.7727 128.89C64.3527 129.263 63.9327 129.66 63.5127 130.08C63.0927 130.453 62.6494 130.827 62.1827 131.2C61.9027 131.433 61.5994 131.69 61.2727 131.97C60.9461 132.25 60.5727 132.273 60.1527 132.04C59.8261 131.807 59.7327 131.503 59.8727 131.13C60.0127 130.757 60.0594 130.43 60.0127 130.15ZM78.2127 130.92C78.5861 129.287 78.5627 128.26 78.1427 127.84C77.7227 127.373 76.6961 127.233 75.0627 127.42C74.8761 127.467 74.6894 127.513 74.5027 127.56C74.3627 127.56 74.2227 127.56 74.0827 127.56C73.5227 127.607 73.3127 127.933 73.4527 128.54C73.6861 129.24 73.7794 129.94 73.7327 130.64C73.7327 131.34 73.6861 132.04 73.5927 132.74C73.4527 133.347 73.5461 133.79 73.8727 134.07C74.2461 134.303 74.6661 134.49 75.1327 134.63C75.5994 134.817 76.0194 134.863 76.3927 134.77C76.7661 134.63 77.0461 134.303 77.2327 133.79C77.4194 133.277 77.5827 132.787 77.7227 132.32C77.8627 131.853 78.0261 131.387 78.2127 130.92ZM66.5927 164.59C66.5461 163.703 66.4761 162.817 66.3827 161.93C66.2894 161.043 66.2194 160.157 66.1727 159.27C65.9394 155.397 65.5894 151.57 65.1227 147.79C64.6561 143.963 64.0494 140.137 63.3027 136.31C63.1627 135.61 62.8127 135.447 62.2527 135.82C61.2727 136.333 60.7827 137.197 60.7827 138.41C60.7361 139.81 60.7594 141.21 60.8527 142.61C60.9461 144.01 61.0627 145.387 61.2027 146.74C61.5294 149.727 61.9261 152.713 62.3927 155.7C62.8594 158.687 63.1627 161.697 63.3027 164.73C63.3027 165.477 63.6294 165.78 64.2827 165.64C64.7027 165.547 65.1461 165.523 65.6127 165.57C66.0794 165.617 66.4061 165.29 66.5927 164.59ZM98.7955 131.13C99.3088 130.71 99.7521 130.337 100.125 130.01C100.545 129.637 100.942 129.287 101.315 128.96C102.622 127.793 103.999 127.023 105.445 126.65C106.892 126.23 108.455 126.277 110.135 126.79C110.415 126.883 110.695 126.93 110.975 126.93C111.255 126.93 111.535 126.907 111.815 126.86C113.169 126.72 114.452 126.743 115.665 126.93C116.925 127.117 117.439 127.84 117.205 129.1C117.065 129.847 116.925 130.593 116.785 131.34C116.645 132.087 116.459 132.81 116.225 133.51C115.945 134.397 115.549 135.003 115.035 135.33C114.569 135.61 113.869 135.68 112.935 135.54C112.562 135.447 112.305 135.353 112.165 135.26C111.185 134.513 110.205 134.117 109.225 134.07C108.245 134.023 107.242 134.117 106.215 134.35C105.235 134.583 104.255 134.793 103.275 134.98C102.295 135.12 101.875 135.703 102.015 136.73C102.249 137.943 102.459 139.18 102.645 140.44C102.879 141.653 103.089 142.867 103.275 144.08C103.742 146.6 104.069 149.12 104.255 151.64C104.442 154.16 104.629 156.657 104.815 159.13C104.909 160.017 104.979 160.903 105.025 161.79C105.119 162.677 105.212 163.587 105.305 164.52C105.445 165.64 104.932 166.27 103.765 166.41C103.205 166.457 102.622 166.503 102.015 166.55C101.455 166.643 101.012 167.063 100.685 167.81C100.639 167.857 100.499 167.903 100.265 167.95C100.079 167.997 99.8921 168.043 99.7055 168.09C99.3788 168.137 99.0288 168.16 98.6555 168.16C98.3288 168.16 97.9788 168.183 97.6055 168.23C96.5321 168.323 95.8088 168.23 95.4355 167.95C95.0621 167.67 94.8288 166.97 94.7355 165.85C94.6421 164.17 94.5488 162.513 94.4555 160.88C94.4088 159.2 94.3388 157.497 94.2455 155.77C94.1988 153.997 94.0355 152.223 93.7555 150.45C93.5221 148.63 93.1721 146.857 92.7055 145.13C92.3788 143.823 92.2621 142.517 92.3555 141.21C92.4488 139.857 92.5188 138.527 92.5655 137.22C92.6588 135.353 92.8921 133.533 93.2655 131.76C93.6855 129.94 94.0588 128.12 94.3855 126.3C94.4321 126.113 94.5021 125.88 94.5955 125.6C95.1088 123.967 95.6688 122.963 96.2755 122.59C96.8821 122.217 98.0255 122.17 99.7055 122.45C100.359 122.543 100.755 122.707 100.895 122.94C101.035 123.127 100.919 123.523 100.545 124.13C99.9388 125.157 99.4955 126.253 99.2155 127.42C98.9355 128.54 98.7955 129.777 98.7955 131.13ZM95.7155 125.18C95.5755 125.927 95.7855 126.347 96.3455 126.44C98.0255 126.813 99.1221 125.997 99.6355 123.99C99.7755 123.477 99.6121 123.173 99.1455 123.08C97.2788 122.613 96.1355 123.313 95.7155 125.18ZM97.8155 130.15C97.8621 129.917 97.9088 129.73 97.9555 129.59C98.0021 129.45 98.0255 129.31 98.0255 129.17C97.9788 128.843 98.0021 128.493 98.0955 128.12C98.2355 127.747 98.0488 127.467 97.5355 127.28C96.9288 127 96.3688 127 95.8555 127.28C95.3421 127.56 95.0155 128.027 94.8755 128.68C94.7355 129.147 94.5955 129.613 94.4555 130.08C94.3155 130.547 94.2221 131.037 94.1755 131.55C93.8955 134.163 93.6621 136.8 93.4755 139.46C93.3355 142.073 93.5688 144.71 94.1755 147.37C94.8288 150.31 95.2021 153.273 95.2955 156.26C95.3888 159.247 95.4821 162.21 95.5755 165.15C95.6221 166.177 95.7621 166.807 95.9955 167.04C96.2288 167.273 96.8355 167.367 97.8155 167.32C98.0021 167.32 98.1655 167.297 98.3055 167.25C98.4455 167.25 98.6088 167.25 98.7955 167.25C99.7755 167.297 100.265 166.807 100.265 165.78C100.219 164.007 100.125 162.257 99.9855 160.53C99.8455 158.757 99.6121 156.983 99.2855 155.21C98.3988 149.75 97.8388 144.243 97.6055 138.69C97.5588 137.477 97.7688 136.59 98.2355 136.03C98.7021 135.47 99.5188 135.027 100.685 134.7C101.899 134.42 103.089 134.187 104.255 134C105.469 133.813 106.659 133.627 107.825 133.44C109.225 133.207 110.065 132.927 110.345 132.6C110.672 132.227 110.742 131.317 110.555 129.87C110.509 129.637 110.462 129.427 110.415 129.24C110.415 129.007 110.369 128.797 110.275 128.61C109.902 127.583 109.179 127.07 108.105 127.07C107.079 126.977 106.099 127.07 105.165 127.35C104.232 127.63 103.369 128.143 102.575 128.89C102.155 129.263 101.735 129.66 101.315 130.08C100.895 130.453 100.452 130.827 99.9855 131.2C99.7055 131.433 99.4021 131.69 99.0755 131.97C98.7488 132.25 98.3755 132.273 97.9555 132.04C97.6288 131.807 97.5355 131.503 97.6755 131.13C97.8155 130.757 97.8621 130.43 97.8155 130.15ZM116.015 130.92C116.389 129.287 116.365 128.26 115.945 127.84C115.525 127.373 114.499 127.233 112.865 127.42C112.679 127.467 112.492 127.513 112.305 127.56C112.165 127.56 112.025 127.56 111.885 127.56C111.325 127.607 111.115 127.933 111.255 128.54C111.489 129.24 111.582 129.94 111.535 130.64C111.535 131.34 111.489 132.04 111.395 132.74C111.255 133.347 111.349 133.79 111.675 134.07C112.049 134.303 112.469 134.49 112.935 134.63C113.402 134.817 113.822 134.863 114.195 134.77C114.569 134.63 114.849 134.303 115.035 133.79C115.222 133.277 115.385 132.787 115.525 132.32C115.665 131.853 115.829 131.387 116.015 130.92ZM104.395 164.59C104.349 163.703 104.279 162.817 104.185 161.93C104.092 161.043 104.022 160.157 103.975 159.27C103.742 155.397 103.392 151.57 102.925 147.79C102.459 143.963 101.852 140.137 101.105 136.31C100.965 135.61 100.615 135.447 100.055 135.82C99.0755 136.333 98.5855 137.197 98.5855 138.41C98.5388 139.81 98.5621 141.21 98.6555 142.61C98.7488 144.01 98.8655 145.387 99.0055 146.74C99.3321 149.727 99.7288 152.713 100.195 155.7C100.662 158.687 100.965 161.697 101.105 164.73C101.105 165.477 101.432 165.78 102.085 165.64C102.505 165.547 102.949 165.523 103.415 165.57C103.882 165.617 104.209 165.29 104.395 164.59ZM157.598 143.17C157.692 145.597 157.692 147.93 157.598 150.17C157.505 152.41 157.202 154.627 156.688 156.82C156.408 157.987 155.965 159.153 155.358 160.32C154.752 161.44 153.865 162.49 152.698 163.47C151.952 164.17 150.738 164.823 149.058 165.43C147.425 166.037 145.675 166.503 143.808 166.83C141.988 167.157 140.355 167.273 138.908 167.18C135.502 166.9 133.332 165.78 132.398 163.82C132.025 163.027 131.745 162.257 131.558 161.51C131.418 160.717 131.325 159.9 131.278 159.06C131.138 156.027 131.208 152.993 131.488 149.96C131.768 146.927 131.862 143.893 131.768 140.86C131.722 138.387 132.328 135.913 133.588 133.44C134.148 132.32 134.802 131.223 135.548 130.15C136.342 129.077 137.485 128.097 138.978 127.21C142.105 125.437 145.955 124.69 150.528 124.97C151.368 125.017 152.092 125.203 152.698 125.53C153.305 125.81 153.842 126.137 154.308 126.51C155.195 127.303 155.895 128.143 156.408 129.03C156.922 129.87 157.202 130.757 157.248 131.69C157.342 133.697 157.458 135.68 157.598 137.64C157.785 139.553 157.785 141.397 157.598 143.17ZM155.988 136.52C155.988 135.68 156.012 134.84 156.058 134C156.105 133.16 156.082 132.32 155.988 131.48C155.755 129.1 154.542 127.443 152.348 126.51C150.202 125.53 147.378 125.367 143.878 126.02C142.852 126.207 141.965 126.51 141.218 126.93C140.518 127.303 139.888 127.723 139.328 128.19C137.322 129.917 135.852 131.737 134.918 133.65C133.985 135.517 133.472 137.453 133.378 139.46C133.332 142.353 133.215 145.247 133.028 148.14C132.842 151.033 132.655 153.927 132.468 156.82C132.422 158.127 132.515 159.41 132.748 160.67C133.028 161.883 133.495 163.097 134.148 164.31C134.475 164.917 135.012 165.383 135.758 165.71C136.505 166.083 137.415 166.34 138.488 166.48C139.515 166.62 140.705 166.597 142.058 166.41C143.412 166.27 144.765 166.013 146.118 165.64C147.472 165.267 148.685 164.823 149.758 164.31C150.878 163.843 151.672 163.353 152.138 162.84C153.445 161.44 154.355 159.993 154.868 158.5C155.428 157.007 155.825 155.467 156.058 153.88C156.478 150.987 156.595 148.093 156.408 145.2C156.222 142.307 156.082 139.413 155.988 136.52ZM151.578 138.2C151.158 140.44 151.018 142.727 151.158 145.06C151.345 147.393 151.672 149.727 152.138 152.06C152.278 152.76 152.208 153.437 151.928 154.09C151.695 154.697 151.112 155.257 150.178 155.77C148.452 156.657 146.678 157.03 144.858 156.89C143.038 156.75 141.475 156.097 140.168 154.93C138.022 152.923 136.692 150.847 136.178 148.7C135.712 146.553 135.852 144.337 136.598 142.05C136.972 140.93 137.555 139.857 138.348 138.83C139.142 137.757 140.285 136.8 141.778 135.96C142.898 135.307 144.112 134.84 145.418 134.56C146.772 134.28 147.962 134.257 148.988 134.49C150.762 134.957 151.625 136.193 151.578 138.2ZM149.758 142.33C149.805 142.097 149.828 141.887 149.828 141.7C149.875 141.513 149.898 141.327 149.898 141.14C149.898 140.393 149.898 139.647 149.898 138.9C149.898 138.107 149.852 137.337 149.758 136.59C149.712 136.217 149.525 135.89 149.198 135.61C148.872 135.33 148.312 135.167 147.518 135.12C146.725 135.027 146.118 135.12 145.698 135.4C145.325 135.633 145.022 135.937 144.788 136.31C144.695 136.497 144.578 136.707 144.438 136.94C144.345 137.127 144.252 137.337 144.158 137.57C143.225 140.37 143.085 143.217 143.738 146.11C143.972 147.277 144.368 148.397 144.928 149.47C145.488 150.543 146.632 151.477 148.358 152.27C148.638 152.41 148.918 152.55 149.198 152.69C149.525 152.83 149.898 152.83 150.318 152.69C150.692 152.55 150.855 152.387 150.808 152.2C150.808 152.013 150.785 151.827 150.738 151.64C150.505 150.053 150.272 148.49 150.038 146.95C149.852 145.41 149.758 143.87 149.758 142.33ZM142.828 136.59C141.382 137.383 140.355 138.2 139.748 139.04C139.188 139.88 138.745 140.767 138.418 141.7C137.532 143.94 137.275 146.133 137.648 148.28C138.068 150.427 139.352 152.527 141.498 154.58C142.572 155.56 143.785 156.12 145.138 156.26C146.492 156.4 147.845 156.097 149.198 155.35C149.898 154.977 150.272 154.627 150.318 154.3C150.412 153.973 149.945 153.647 148.918 153.32C146.165 152.433 144.322 151.033 143.388 149.12C142.362 147.067 141.848 145.037 141.848 143.03C141.848 140.977 142.175 138.83 142.828 136.59ZM178.571 131.13C179.084 130.71 179.528 130.337 179.901 130.01C180.321 129.637 180.718 129.287 181.091 128.96C182.398 127.793 183.774 127.023 185.221 126.65C186.668 126.23 188.231 126.277 189.911 126.79C190.191 126.883 190.471 126.93 190.751 126.93C191.031 126.93 191.311 126.907 191.591 126.86C192.944 126.72 194.228 126.743 195.441 126.93C196.701 127.117 197.214 127.84 196.981 129.1C196.841 129.847 196.701 130.593 196.561 131.34C196.421 132.087 196.234 132.81 196.001 133.51C195.721 134.397 195.324 135.003 194.811 135.33C194.344 135.61 193.644 135.68 192.711 135.54C192.338 135.447 192.081 135.353 191.941 135.26C190.961 134.513 189.981 134.117 189.001 134.07C188.021 134.023 187.018 134.117 185.991 134.35C185.011 134.583 184.031 134.793 183.051 134.98C182.071 135.12 181.651 135.703 181.791 136.73C182.024 137.943 182.234 139.18 182.421 140.44C182.654 141.653 182.864 142.867 183.051 144.08C183.518 146.6 183.844 149.12 184.031 151.64C184.218 154.16 184.404 156.657 184.591 159.13C184.684 160.017 184.754 160.903 184.801 161.79C184.894 162.677 184.988 163.587 185.081 164.52C185.221 165.64 184.708 166.27 183.541 166.41C182.981 166.457 182.398 166.503 181.791 166.55C181.231 166.643 180.788 167.063 180.461 167.81C180.414 167.857 180.274 167.903 180.041 167.95C179.854 167.997 179.668 168.043 179.481 168.09C179.154 168.137 178.804 168.16 178.431 168.16C178.104 168.16 177.754 168.183 177.381 168.23C176.308 168.323 175.584 168.23 175.211 167.95C174.838 167.67 174.604 166.97 174.511 165.85C174.418 164.17 174.324 162.513 174.231 160.88C174.184 159.2 174.114 157.497 174.021 155.77C173.974 153.997 173.811 152.223 173.531 150.45C173.298 148.63 172.948 146.857 172.481 145.13C172.154 143.823 172.038 142.517 172.131 141.21C172.224 139.857 172.294 138.527 172.341 137.22C172.434 135.353 172.668 133.533 173.041 131.76C173.461 129.94 173.834 128.12 174.161 126.3C174.208 126.113 174.278 125.88 174.371 125.6C174.884 123.967 175.444 122.963 176.051 122.59C176.658 122.217 177.801 122.17 179.481 122.45C180.134 122.543 180.531 122.707 180.671 122.94C180.811 123.127 180.694 123.523 180.321 124.13C179.714 125.157 179.271 126.253 178.991 127.42C178.711 128.54 178.571 129.777 178.571 131.13ZM175.491 125.18C175.351 125.927 175.561 126.347 176.121 126.44C177.801 126.813 178.898 125.997 179.411 123.99C179.551 123.477 179.388 123.173 178.921 123.08C177.054 122.613 175.911 123.313 175.491 125.18ZM177.591 130.15C177.638 129.917 177.684 129.73 177.731 129.59C177.778 129.45 177.801 129.31 177.801 129.17C177.754 128.843 177.778 128.493 177.871 128.12C178.011 127.747 177.824 127.467 177.311 127.28C176.704 127 176.144 127 175.631 127.28C175.118 127.56 174.791 128.027 174.651 128.68C174.511 129.147 174.371 129.613 174.231 130.08C174.091 130.547 173.998 131.037 173.951 131.55C173.671 134.163 173.438 136.8 173.251 139.46C173.111 142.073 173.344 144.71 173.951 147.37C174.604 150.31 174.978 153.273 175.071 156.26C175.164 159.247 175.258 162.21 175.351 165.15C175.398 166.177 175.538 166.807 175.771 167.04C176.004 167.273 176.611 167.367 177.591 167.32C177.778 167.32 177.941 167.297 178.081 167.25C178.221 167.25 178.384 167.25 178.571 167.25C179.551 167.297 180.041 166.807 180.041 165.78C179.994 164.007 179.901 162.257 179.761 160.53C179.621 158.757 179.388 156.983 179.061 155.21C178.174 149.75 177.614 144.243 177.381 138.69C177.334 137.477 177.544 136.59 178.011 136.03C178.478 135.47 179.294 135.027 180.461 134.7C181.674 134.42 182.864 134.187 184.031 134C185.244 133.813 186.434 133.627 187.601 133.44C189.001 133.207 189.841 132.927 190.121 132.6C190.448 132.227 190.518 131.317 190.331 129.87C190.284 129.637 190.238 129.427 190.191 129.24C190.191 129.007 190.144 128.797 190.051 128.61C189.678 127.583 188.954 127.07 187.881 127.07C186.854 126.977 185.874 127.07 184.941 127.35C184.008 127.63 183.144 128.143 182.351 128.89C181.931 129.263 181.511 129.66 181.091 130.08C180.671 130.453 180.228 130.827 179.761 131.2C179.481 131.433 179.178 131.69 178.851 131.97C178.524 132.25 178.151 132.273 177.731 132.04C177.404 131.807 177.311 131.503 177.451 131.13C177.591 130.757 177.638 130.43 177.591 130.15ZM195.791 130.92C196.164 129.287 196.141 128.26 195.721 127.84C195.301 127.373 194.274 127.233 192.641 127.42C192.454 127.467 192.268 127.513 192.081 127.56C191.941 127.56 191.801 127.56 191.661 127.56C191.101 127.607 190.891 127.933 191.031 128.54C191.264 129.24 191.358 129.94 191.311 130.64C191.311 131.34 191.264 132.04 191.171 132.74C191.031 133.347 191.124 133.79 191.451 134.07C191.824 134.303 192.244 134.49 192.711 134.63C193.178 134.817 193.598 134.863 193.971 134.77C194.344 134.63 194.624 134.303 194.811 133.79C194.998 133.277 195.161 132.787 195.301 132.32C195.441 131.853 195.604 131.387 195.791 130.92ZM184.171 164.59C184.124 163.703 184.054 162.817 183.961 161.93C183.868 161.043 183.798 160.157 183.751 159.27C183.518 155.397 183.168 151.57 182.701 147.79C182.234 143.963 181.628 140.137 180.881 136.31C180.741 135.61 180.391 135.447 179.831 135.82C178.851 136.333 178.361 137.197 178.361 138.41C178.314 139.81 178.338 141.21 178.431 142.61C178.524 144.01 178.641 145.387 178.781 146.74C179.108 149.727 179.504 152.713 179.971 155.7C180.438 158.687 180.741 161.697 180.881 164.73C180.881 165.477 181.208 165.78 181.861 165.64C182.281 165.547 182.724 165.523 183.191 165.57C183.658 165.617 183.984 165.29 184.171 164.59Z" fill="black"/>
</svg>
