<svg width="252" height="26" viewBox="0 0 252 26" fill="none" xmlns="http://www.w3.org/2000/svg">
<path d="M20.959 0.933594V19.3086H18.7715V15.8906H13.4121V14.1406H18.7715V0.933594H20.959ZM21.5605 22.8906V24.6953H4.30664V17.2578H6.4668V22.8906H21.5605ZM0.669922 10.5586C3.78711 10.5586 7.71094 10.5176 11.5801 10.2578C12.0586 7.56445 12.1406 5.55469 12.1543 4.16016H2.85742V2.41016H14.2871V3.36719C14.2871 4.70703 14.2871 6.99023 13.7676 10.0664C14.7246 9.99805 15.6543 9.88867 16.5566 9.76562L16.7207 11.3242C14.4512 11.707 12.0723 11.9395 9.74805 12.0898V17.6953H7.61523V12.1992C5.20898 12.3086 2.93945 12.3359 0.970703 12.3359L0.669922 10.5586ZM44.0371 0.933594V8.94531H47.7012V10.75H44.0371V19.1445H41.9043V0.933594H44.0371ZM39.5801 3.91406V5.66406H25.0879V3.91406H31.2676V0.933594H33.4004V3.91406H39.5801ZM32.334 7.00391C35.8066 7.00391 38.1582 8.78125 38.1855 11.543C38.1582 14.2773 35.8066 16.0273 32.334 16.0273C28.834 16.0273 26.4551 14.2773 26.4824 11.543C26.4551 8.78125 28.834 7.00391 32.334 7.00391ZM32.334 8.69922C30.0371 8.69922 28.5059 9.82031 28.5332 11.543C28.5059 13.2656 30.0371 14.3594 32.334 14.332C34.6035 14.3594 36.1348 13.2656 36.1621 11.543C36.1348 9.82031 34.6035 8.69922 32.334 8.69922ZM45.1582 22.8906V24.6953H28.834V17.6953H30.9395V22.8906H45.1582Z" fill="#FF3B30"/>
<path d="M69.2754 0.90625V25.2695H67.1152V0.90625H69.2754ZM56.3418 2.79297C59.9512 2.82031 62.5488 6.10156 62.5488 11.2695C62.5488 16.4375 59.9512 19.7188 56.3418 19.7188C52.7051 19.7188 50.1348 16.4375 50.1348 11.2695C50.1348 6.10156 52.7051 2.82031 56.3418 2.79297ZM56.3418 4.70703C53.9082 4.73438 52.2129 7.30469 52.2129 11.2695C52.2129 15.2344 53.9082 17.8047 56.3418 17.8047C58.7754 17.8047 60.4707 15.2344 60.4707 11.2695C60.4707 7.30469 58.7754 4.73438 56.3418 4.70703ZM88.6895 17.2305C88.6895 19.377 89.8379 21.6602 92.1621 22.9727C94.459 21.5371 95.6895 19.1172 95.6895 17.2305V15.8906H97.7949V17.2305C97.7949 19.7188 99.627 22.2344 102.744 23.3008L101.678 24.8867C99.2441 24.0254 97.5352 22.3301 96.7012 20.293C95.9492 22.2617 94.459 24.1211 92.2168 25.0781C89.8516 24.1758 88.3477 22.3848 87.623 20.3477C86.7617 22.3164 85.0801 24.0117 82.7559 24.8867L81.6621 23.3008C84.7246 22.1523 86.584 19.5547 86.6113 17.2305V15.8906H88.6895V17.2305ZM100.529 0.933594V14.8242H98.3965V0.933594H100.529ZM87.4043 2.35547C91.0957 2.35547 93.7754 4.65234 93.7754 8.04297C93.7754 11.3789 91.0957 13.6758 87.4043 13.6758C83.7129 13.6758 81.0332 11.3789 81.0332 8.04297C81.0332 4.65234 83.7129 2.35547 87.4043 2.35547ZM87.4043 4.1875C84.916 4.16016 83.1113 5.77344 83.1387 8.04297C83.1113 10.2852 84.916 11.8711 87.4043 11.8984C89.8652 11.8711 91.6699 10.2852 91.6699 8.04297C91.6699 5.77344 89.8652 4.16016 87.4043 4.1875ZM124.318 8.28906V10.0117H107.666V1.80859H109.799V8.28906H124.318ZM126.889 13.3203V15.0703H104.631V13.3203H126.889ZM124.455 22.8359V24.6133H107.529V17.5586H109.662V22.8359H124.455ZM156.037 0.933594V17.3945H153.877V9.57422H148.545V7.76953H153.877V0.933594H156.037ZM148.436 2.84766C148.408 9.08203 144.252 13.5664 137.252 15.8086L136.295 14.0859C142.105 12.2949 145.688 8.91797 146.139 4.59766H137.498V2.84766H148.436ZM149.201 16.3828C149.201 19.9375 153.084 22.5898 157.377 23.3555L156.475 25.0781C152.893 24.3809 149.598 22.5078 148.162 19.6641C146.672 22.5215 143.336 24.4219 139.713 25.1328L138.838 23.4375C143.131 22.6992 147.068 19.9648 147.096 16.3828V15.2617H149.201V16.3828ZM179.389 2.57422V12.9648H168.15V2.57422H179.389ZM170.256 4.32422V11.2148H177.311V4.32422H170.256ZM186.115 0.90625V6.75781H189.779V8.5625H186.115V14.7969H183.982V0.90625H186.115ZM186.553 16.2188V17.9688H179.662C179.895 20.5664 183.518 22.8359 187.482 23.4648L186.689 25.1328C183.135 24.5449 179.908 22.7812 178.514 20.3477C177.133 22.7949 173.934 24.5312 170.393 25.1055L169.572 23.4648C173.592 22.8359 177.146 20.6074 177.42 17.9688H170.529V16.2188H186.553ZM214.061 10.6133V12.418H210.123V25.2148H207.99V0.90625H210.123V10.6133H214.061ZM194.455 3.3125V17.2305C198.01 17.2168 201.633 16.9434 205.639 16.1094L205.912 17.9414C201.729 18.7891 197.955 19.0352 194.264 19.0352H192.322V3.3125H194.455ZM237.768 20.293V22.0977H215.51V20.293H221.033V13.7305C218.955 12.6504 217.697 10.9004 217.697 8.69922C217.697 4.92578 221.389 2.46484 226.584 2.4375C231.779 2.46484 235.471 4.92578 235.471 8.69922C235.471 10.8594 234.254 12.5957 232.244 13.6758V20.293H237.768ZM226.584 4.21484C222.592 4.1875 219.775 5.99219 219.775 8.69922C219.775 11.4062 222.592 13.2383 226.584 13.2383C230.549 13.2383 233.393 11.4062 233.393 8.69922C233.393 5.99219 230.549 4.1875 226.584 4.21484ZM223.139 20.293H230.084V14.4961C229.031 14.7832 227.855 14.9336 226.584 14.9336C225.34 14.9336 224.178 14.7969 223.139 14.5234V20.293ZM243.592 17.2852C243.619 13.6211 244.74 12.5 246.627 11.3516C247.748 10.668 248.623 9.57422 248.623 8.04297C248.623 6.18359 247.174 5.00781 245.369 5.00781C243.811 5.00781 242.252 5.9375 242.088 8.17969H239.6C239.736 4.87109 242.252 2.92969 245.369 2.92969C248.787 2.92969 251.029 5.14453 251.029 8.15234C251.029 10.2852 250.018 11.7891 248.322 12.8281C246.627 13.8672 245.998 14.9062 245.943 17.2852V17.4219H243.592V17.2852ZM244.85 23.1641C243.893 23.1641 243.072 22.3711 243.1 21.3867C243.072 20.4297 243.893 19.6367 244.85 19.6367C245.807 19.6367 246.6 20.4297 246.6 21.3867C246.6 22.3711 245.807 23.1641 244.85 23.1641Z" fill="#999999"/>
</svg>
