<svg width="216" height="153" viewBox="0 0 216 153" fill="none" xmlns="http://www.w3.org/2000/svg">
<path fill-rule="evenodd" clip-rule="evenodd" d="M121.039 118.168C136.673 118.168 149.347 104.213 149.347 87.0001C149.347 69.7868 136.673 55.8326 121.039 55.8326C105.404 55.8326 92.73 69.7868 92.73 87.0001C92.73 104.213 105.404 118.168 121.039 118.168ZM121.039 127.815C141.512 127.815 158.11 109.541 158.11 87.0001C158.11 64.4589 141.512 46.1855 121.039 46.1855C100.565 46.1855 83.9678 64.4589 83.9678 87.0001C83.9678 109.541 100.565 127.815 121.039 127.815Z" fill="#F20505"/>
<path fill-rule="evenodd" clip-rule="evenodd" d="M144.424 110.853L115.741 92.5971L120.966 83.3594L149.649 101.615L144.424 110.853Z" fill="#F20505"/>
<path fill-rule="evenodd" clip-rule="evenodd" d="M113.626 121.535V55.6035H125.488V121.535H113.626Z" fill="#F20505"/>
<path d="M119.482 12L129.009 54H109.956L119.482 12Z" fill="#F20505"/>
<path d="M171.075 38.075L150.581 69.714L140.169 58.0857L171.075 38.075Z" fill="#F20505"/>
<path d="M168.928 83.8074L153.607 94.8651L152.789 74.1435L168.928 83.8074Z" fill="#F20505"/>
<path d="M212.783 148.175L148.501 112.974L153.07 104.825L212.783 148.175Z" fill="#F20505"/>
<path d="M119.491 142.173L109.961 125.327L129.537 125.667L119.491 142.173Z" fill="#F20505"/>
<path d="M103.527 119.128L86.2972 126.377L89.7681 105.966L103.527 119.128Z" fill="#F20505"/>
<path d="M30.7764 113.793L86.4478 77.7395L95.0048 101.605L30.7764 113.793Z" fill="#F20505"/>
<path d="M5.34665 10.5498L100.784 53.0572L91.5234 71.3301L5.34665 10.5498Z" fill="#F20505"/>
</svg>
