<svg width="50" height="50" viewBox="0 0 50 50" fill="none" xmlns="http://www.w3.org/2000/svg">
<path fill-rule="evenodd" clip-rule="evenodd" d="M25 44.0909C35.5436 44.0909 44.0909 35.5436 44.0909 25C44.0909 14.4564 35.5436 5.90909 25 5.90909C14.4564 5.90909 5.90909 14.4564 5.90909 25C5.90909 35.5436 14.4564 44.0909 25 44.0909ZM25 50C38.8071 50 50 38.8071 50 25C50 11.1929 38.8071 0 25 0C11.1929 0 0 11.1929 0 25C0 38.8071 11.1929 50 25 50Z" fill="#F2B705"/>
<path fill-rule="evenodd" clip-rule="evenodd" d="M41.7276 40.024L22.2783 28.331L25.8213 22.4141L45.2706 34.1071L41.7276 40.024Z" fill="#F2B705"/>
<path fill-rule="evenodd" clip-rule="evenodd" d="M21.5517 47.414L21.5517 4.31055H28.4482L28.4482 47.414H21.5517Z" fill="#F2B705"/>
</svg>
