<svg width="16" height="16" viewBox="0 0 16 16" fill="none" xmlns="http://www.w3.org/2000/svg">
<path d="M4.64592 4.64689C4.69236 4.60033 4.74754 4.56339 4.80828 4.53818C4.86903 4.51297 4.93415 4.5 4.99992 4.5C5.06568 4.5 5.13081 4.51297 5.19155 4.53818C5.2523 4.56339 5.30747 4.60033 5.35392 4.64689L7.99992 7.29389L10.6459 4.64689C10.6924 4.60041 10.7476 4.56353 10.8083 4.53837C10.8691 4.51321 10.9342 4.50026 10.9999 4.50026C11.0657 4.50026 11.1308 4.51321 11.1915 4.53837C11.2522 4.56353 11.3074 4.60041 11.3539 4.64689C11.4004 4.69338 11.4373 4.74857 11.4624 4.80931C11.4876 4.87005 11.5005 4.93515 11.5005 5.00089C11.5005 5.06664 11.4876 5.13174 11.4624 5.19248C11.4373 5.25322 11.4004 5.30841 11.3539 5.35489L8.70692 8.00089L11.3539 10.6469C11.4004 10.6934 11.4373 10.7486 11.4624 10.8093C11.4876 10.87 11.5005 10.9351 11.5005 11.0009C11.5005 11.0666 11.4876 11.1317 11.4624 11.1925C11.4373 11.2532 11.4004 11.3084 11.3539 11.3549C11.3074 11.4014 11.2522 11.4383 11.1915 11.4634C11.1308 11.4886 11.0657 11.5015 10.9999 11.5015C10.9342 11.5015 10.8691 11.4886 10.8083 11.4634C10.7476 11.4383 10.6924 11.4014 10.6459 11.3549L7.99992 8.70789L5.35392 11.3549C5.30743 11.4014 5.25224 11.4383 5.1915 11.4634C5.13076 11.4886 5.06566 11.5015 4.99992 11.5015C4.93417 11.5015 4.86907 11.4886 4.80833 11.4634C4.74759 11.4383 4.6924 11.4014 4.64592 11.3549C4.59943 11.3084 4.56255 11.2532 4.53739 11.1925C4.51223 11.1317 4.49929 11.0666 4.49929 11.0009C4.49929 10.9351 4.51223 10.87 4.53739 10.8093C4.56255 10.7486 4.59943 10.6934 4.64592 10.6469L7.29292 8.00089L4.64592 5.35489C4.59935 5.30845 4.56241 5.25327 4.5372 5.19253C4.512 5.13178 4.49902 5.06666 4.49902 5.00089C4.49902 4.93513 4.512 4.87001 4.5372 4.80926C4.56241 4.74851 4.59935 4.69334 4.64592 4.64689Z" fill="#999999"/>
</svg>
