<svg width="16" height="17" viewBox="0 0 16 17" fill="none" xmlns="http://www.w3.org/2000/svg">
<path d="M2.14565 3.35366C2.09917 3.30717 2.06229 3.25198 2.03713 3.19124C2.01197 3.1305 1.99902 3.0654 1.99902 2.99966C1.99902 2.93391 2.01197 2.86881 2.03713 2.80807C2.06229 2.74733 2.09917 2.69214 2.14565 2.64565C2.19214 2.59917 2.24733 2.56229 2.30807 2.53713C2.36881 2.51197 2.43391 2.49902 2.49966 2.49902C2.5654 2.49902 2.6305 2.51197 2.69124 2.53713C2.75198 2.56229 2.80717 2.59917 2.85366 2.64565L7.99965 7.79265L13.1457 2.64565C13.1921 2.59917 13.2473 2.56229 13.3081 2.53713C13.3688 2.51197 13.4339 2.49902 13.4997 2.49902C13.5654 2.49902 13.6305 2.51197 13.6912 2.53713C13.752 2.56229 13.8072 2.59917 13.8537 2.64565C13.9001 2.69214 13.937 2.74733 13.9622 2.80807C13.9873 2.86881 14.0003 2.93391 14.0003 2.99966C14.0003 3.0654 13.9873 3.1305 13.9622 3.19124C13.937 3.25198 13.9001 3.30717 13.8537 3.35366L8.70665 8.49965L13.8537 13.6457C13.9001 13.6921 13.937 13.7473 13.9622 13.8081C13.9873 13.8688 14.0003 13.9339 14.0003 13.9997C14.0003 14.0654 13.9873 14.1305 13.9622 14.1912C13.937 14.252 13.9001 14.3072 13.8537 14.3537C13.8072 14.4001 13.752 14.437 13.6912 14.4622C13.6305 14.4873 13.5654 14.5003 13.4997 14.5003C13.4339 14.5003 13.3688 14.4873 13.3081 14.4622C13.2473 14.437 13.1921 14.4001 13.1457 14.3537L7.99965 9.20665L2.85366 14.3537C2.80717 14.4001 2.75198 14.437 2.69124 14.4622C2.6305 14.4873 2.5654 14.5003 2.49966 14.5003C2.43391 14.5003 2.36881 14.4873 2.30807 14.4622C2.24733 14.437 2.19214 14.4001 2.14565 14.3537C2.09917 14.3072 2.06229 14.252 2.03713 14.1912C2.01197 14.1305 1.99902 14.0654 1.99902 13.9997C1.99902 13.9339 2.01197 13.8688 2.03713 13.8081C2.06229 13.7473 2.09917 13.6921 2.14565 13.6457L7.29265 8.49965L2.14565 3.35366Z" fill="#555555"/>
</svg>
