<svg width="54" height="56" viewBox="0 0 54 56" fill="none" xmlns="http://www.w3.org/2000/svg">
<ellipse cx="26.595" cy="27.655" rx="26.595" ry="27.655" fill="white"/>
<path fill-rule="evenodd" clip-rule="evenodd" d="M26.5936 48.7774C37.8093 48.7774 46.9014 39.3216 46.9014 27.6573C46.9014 15.993 37.8093 6.53718 26.5936 6.53718C15.3779 6.53718 6.28575 15.993 6.28575 27.6573C6.28575 39.3216 15.3779 48.7774 26.5936 48.7774ZM26.5936 55.3146C41.2808 55.3146 53.1871 42.932 53.1871 27.6573C53.1871 12.3826 41.2808 0 26.5936 0C11.9063 0 0 12.3826 0 27.6573C0 42.932 11.9063 55.3146 26.5936 55.3146Z" fill="#F2B705"/>
<path fill-rule="evenodd" clip-rule="evenodd" d="M43.3702 43.8213L22.7936 31.4505L26.542 25.1907L47.1185 37.5615L43.3702 43.8213Z" fill="#F2B705"/>
<path fill-rule="evenodd" clip-rule="evenodd" d="M21.2752 51.0595L21.2752 6.38232L29.7852 6.38232L29.7852 51.0595H21.2752Z" fill="#F2B705"/>
</svg>
